<svg viewBox="0 0 378 70" stroke-width="2" stroke-linecap="round" xmlns="http://www.w3.org/2000/svg"> 
     <g transform="translate(0, 0)">
      <path style="stroke-dasharray:145; stroke-dashoffset:145; animation: dash 0.058823529411764705s linear 5s  forwards" d="M6.9005 29.756L29.7126 5.23416C32.0333 2.8626 30.8251 0.130706 29.1562 1.26476C27.4873 2.39881 27.9509 1.83175 28.5998 16.5753C29.2487 31.3188 29.7126 33.5869 26.3745 38.1234C23.0363 42.6599 19.6978 45.4952 11.3518 44.9281C3.00575 44.361 -5.33991 26.7823 8.0135 20.5447C11.6172 18.0456 21.3669 23.38 14.6902 30.7517"></path> 
      </g>
     
     <g transform="translate(18, 0)">
      <path style="stroke-dasharray:70; stroke-dashoffset:70; animation: dash 0.058823529411764705s linear 5.0588235294117645s  forwards" d="M-1 47.2058C1.2982 46.6533 2.99974 45.911 5.66623 45.0846C9.55026 43.8808 14.1088 42.5149 17.221 40.0758C20.3332 37.6367 20.5318 36.1184 22.9984 32.8876C23.6217 31.8518 23.742 31.2719 22.9984 30.2361C22.6804 30.1448 22.3877 30.078 22.1096 30.0393C20.9347 29.8755 20.02 30.2106 18.5543 31.2967C17.0117 32.6133 15.8323 33.7655 14.822 34.9949C13.4138 36.7084 12.3341 38.5719 11.0571 41.2393C10.3662 42.9463 10.1104 43.4938 10.1104 45.0846C10.1104 46.6754 10.5548 48.0303 11.4436 48.0303C12.6772 48.0303 12.7769 48.0303 14.5545 48.0303C14.999 48.0303 15.8878 48.0303 16.7766 48.0303C16.7766 48.0303 18.5543 48.0303 24.7761 47.2058"></path> 
      </g>
     
     <g transform="translate(41, 0)">
      <path style="stroke-dasharray:73; stroke-dashoffset:73; animation: dash 0.058823529411764705s linear 5.117647058823529s  forwards" d="M0 47.0801C3.62414 45.9067 5.59037 44.8026 9 42.0801C12.8457 39.1674 14.8441 37.4345 18 34.0801L18.5 33.5801M18.5 33.5801C17.8224 33.4197 18 32.0801 18 32.0801C18.8292 30.965 19.5244 30.4343 21 29.5801C22.3646 28.545 22.3032 29.0084 22 30.0801C21.3935 30.8655 20.4767 31.7272 19.1185 33C18.9218 33.1844 18.7157 33.3775 18.5 33.5801ZM18.5 33.5801C20.0772 33.1356 20.9533 32.7048 22.5 31.5801C23.1356 31.2849 23.9356 30.8837 24.6629 30.7711C25.9545 30.5711 27.0169 30.8763 26.5229 32.0801C26.3171 32.5815 25.8415 33.2387 25 34.0801C21 38.0802 20.0147 40.2749 16.5 44.1801C15.2399 45.5802 15.1385 46.3965 16.5 47.0801C17.2462 47.3501 17.6842 47.4374 18.5 47.4801C21.2186 47.3897 21.6211 47.4488 24 46.5"></path> 
      </g>
     
     <g transform="translate(62, 0)">
      <path style="stroke-dasharray:171; stroke-dashoffset:171; animation: dash 0.058823529411764705s linear 5.176470588235294s  forwards" d="M4.87577 46.4927C12.0671 42.934 15.9526 40.0963 22.8758 34.9927C31.241 28.8842 33.4494 28.6732 33.3758 33.4927C33.6606 28.7978 31.9733 28.8739 25.8758 33.4927C17.8583 39.0754 16.4952 41.2169 17.3758 43.9927C17.7454 46.3199 18.9953 45.9311 21.3758 44.9927L36.3758 31.9927C14.9572 57.0736 7.29124 65.307 4.87577 64.9927C1.35902 65.6358 0.361465 65.1747 1.37577 61.9927C8.32555 51.6268 14.6343 48.875 27.8758 46.4927"></path> 
      </g>
     
     <g transform="translate(89, 0)">
      <path style="stroke-dasharray:70; stroke-dashoffset:70; animation: dash 0.058823529411764705s linear 5.235294117647059s  forwards" d="M-1 47.2058C1.2982 46.6533 2.99974 45.911 5.66623 45.0846C9.55026 43.8808 14.1088 42.5149 17.221 40.0758C20.3332 37.6367 20.5318 36.1184 22.9984 32.8876C23.6217 31.8518 23.742 31.2719 22.9984 30.2361C22.6804 30.1448 22.3877 30.078 22.1096 30.0393C20.9347 29.8755 20.02 30.2106 18.5543 31.2967C17.0117 32.6133 15.8323 33.7655 14.822 34.9949C13.4138 36.7084 12.3341 38.5719 11.0571 41.2393C10.3662 42.9463 10.1104 43.4938 10.1104 45.0846C10.1104 46.6754 10.5548 48.0303 11.4436 48.0303C12.6772 48.0303 12.7769 48.0303 14.5545 48.0303C14.999 48.0303 15.8878 48.0303 16.7766 48.0303C16.7766 48.0303 18.5543 48.0303 24.7761 47.2058"></path> 
      </g>
     
     <g transform="translate(112, 0)">
      <path style="stroke-dasharray:164; stroke-dashoffset:164; animation: dash 0.058823529411764705s linear 5.294117647058823s  forwards" d="M0 47L5 45L10 41.5L23.5 30.5C19.7841 35.8156 17.3659 38.2441 14.5 42.5C13.6211 44.6052 13.8291 45.1971 14.5 46C15.0387 46.4492 15.6842 46.5014 17 46.5C22.0969 44.4045 27.3703 37.8496 35.5 29L21 47.5L9.5 61.5C7.26555 64.2576 6.07846 65.5706 4.5 66C4.5 66 2.5 67 2.5 65.5C2.5 64 4.09861 58.4409 10 53.5C18.724 47.7385 22.7476 46.848 29.5 46.4037"></path> 
      </g>
     
     <g transform="translate(139, 0)">
      <path style="stroke-dasharray:0; stroke-dashoffset:0; animation: dash 0.058823529411764705s linear 5.352941176470588s  forwards"></path> 
      </g>
     
     <g transform="translate(159, 0)">
      <path style="stroke-dasharray:258; stroke-dashoffset:258; animation: dash 0.058823529411764705s linear 5.411764705882353s  forwards" d="M44.5 4L9 43.5C4.51604 48.3737 2.81966 47.0399 1.5 42C7.20404 30.8827 18.3547 22.3811 35.5 8C50.5164 1.64615 52.5 5 57.5 8C62.5 11 60.5 13 58.5 15.5C56.5 18 42.4264 22.9352 23 25C34.1572 23.5436 38.8898 24.6681 45.5 29C48.7138 32.023 47.9206 34.2115 44.5 38.5C39.8199 43.7485 33.5 46.5 25.5 48C17.5 49.5 14.3351 47.1688 16 37.5"></path> 
      </g>
     
     <g transform="translate(194, 0)">
      <path style="stroke-dasharray:86; stroke-dashoffset:86; animation: dash 0.058823529411764705s linear 5.470588235294118s  forwards" d="M0 47.0625C4.05224 45.4844 6.24633 44.1985 10 41.0625C14.9847 36.8612 17.7335 34.8983 22.5 32.5625C16.3876 35.7777 14.6682 38.3477 13 43.5625C12.6163 46.5939 13.6328 46.9756 16 47.0625C22.7375 43.1905 25.5898 40.2243 28.5 33.0625C27.9905 30.9031 27.1602 30.5047 24.5 31.5625C21.9091 33.9012 21.4595 35.2148 21.5 37.5625C21.7904 39.2002 23.4541 39.4929 27.5 39.5625"></path> 
      </g>
     
     <g transform="translate(210, 0)">
      <path style="stroke-dasharray:108; stroke-dashoffset:108; animation: dash 0.058823529411764705s linear 5.529411764705882s  forwards" d="M0 48.0286C18.843 39.1874 28.409 32.2582 43.5 16.0286C45.0268 12.2826 45.5383 10.5122 40 13.5286C23.8094 30.0081 18.4069 36.8031 15.5 44.5286C14.8662 47.2349 15.4066 47.9042 17.5 48.0286"></path> 
      </g>
     
     <g transform="translate(228, 0)">
      <path style="stroke-dasharray:86; stroke-dashoffset:86; animation: dash 0.058823529411764705s linear 5.588235294117647s  forwards" d="M0 47.0625C4.05224 45.4844 6.24633 44.1985 10 41.0625C14.9847 36.8612 17.7335 34.8983 22.5 32.5625C16.3876 35.7777 14.6682 38.3477 13 43.5625C12.6163 46.5939 13.6328 46.9756 16 47.0625C22.7375 43.1905 25.5898 40.2243 28.5 33.0625C27.9905 30.9031 27.1602 30.5047 24.5 31.5625C21.9091 33.9012 21.4595 35.2148 21.5 37.5625C21.7904 39.2002 23.4541 39.4929 27.5 39.5625"></path> 
      </g>
     
     <g transform="translate(244, 0)">
      <path style="stroke-dasharray:139; stroke-dashoffset:139; animation: dash 0.058823529411764705s linear 5.647058823529412s  forwards" d="M0 46.5C0 46.5 1.3395 46.3826 4 44.5633C8.78376 41.3817 11.0342 38.7688 15.5 34.5C18.5266 31.3758 22.6383 29.4379 25 27L33 19.5634C33.8568 18.6781 33.0399 17.7463 32.0443 18.0633C29.9277 18.7276 26.9754 21.9051 22.5 26.5C17.2884 32.3716 18.5 31.5634 14 36.5634C10.7434 40.3715 8.3795 42.6908 9.5 45.0634C10.0151 47.2077 11.4971 47.6028 14.5 48.0633C16.769 47.9402 19.1015 47.3199 24.5 45.5633L14.5 27H34"></path> <path stroke-width="0" d="M19.5 32.5C18.2813 33.0719 16.6917 34.4726 16 35.5L23 45.5L26 44.5L19.5 32.5Z"></path> <path stroke-width="0" d="M16.0001 28L13.5 28L15 33.5C16.1553 32.4728 17.2956 31.5807 18.5001 29.5L16.0001 28Z"></path>
      </g>
     
     <g transform="translate(263, 0)">
      <path style="stroke-dasharray:98; stroke-dashoffset:98; animation: dash 0.058823529411764705s linear 5.705882352941177s  forwards" d="M0 46.5C3.92893 45.8225 11.1645 39.6993 23 30L13 45.5C11.7934 45.9294 11.3065 45.979 11.5 45C24.8505 34.2336 31.5 30.5 32.5 31C33.5252 30.7524 34.3845 32.2161 33.5 33.5L23.5 43.5C21.8682 45.3756 22.9505 45.8875 26 46.5"></path> 
      </g>
     
     <g transform="translate(288, 0)">
      <path style="stroke-dasharray:87; stroke-dashoffset:87; animation: dash 0.058823529411764705s linear 5.764705882352941s  forwards" d="M0 47.1168C5.82805 45.5231 13.1656 38.6394 24 29.5001C18.6293 36.2181 16 41.1168 14 44.1168C12 47.1168 13.6583 46.9813 16.5 47.1168C23.2824 38.1546 29.5 22.6168 29.5 22.6168C29.5 22.6168 30.5 22.0001 30.5 21.5C30.5 20.9998 30 21 30 21C30 21 29 21 29 22"></path> <path stroke-width="0" d="M28.5 22.5L32 24L20 46L16 46.5L28.5 22.5Z"></path>
      </g>
     
     <g transform="translate(305, 0)">
      <path style="stroke-dasharray:156; stroke-dashoffset:156; animation: dash 0.058823529411764705s linear 5.823529411764706s  forwards" d="M1 47.6985C5.91023 46.8628 17.4658 36.5289 42 13.6985C43.6976 10.0071 43.0127 10.1951 39.5 13.6985L12.5 46.6985C25.2779 33.0872 28.1138 32.1197 32 32.1985C35.3938 34.4812 33.2808 36.1829 20 40.1985C22.2266 46.7372 23.5542 47.9484 26 47.6985"></path> 
      </g>
     
     <g transform="translate(330, 0)">
      <path style="stroke-dasharray:86; stroke-dashoffset:86; animation: dash 0.058823529411764705s linear 5.882352941176471s  forwards" d="M0 47.0625C4.05224 45.4844 6.24633 44.1985 10 41.0625C14.9847 36.8612 17.7335 34.8983 22.5 32.5625C16.3876 35.7777 14.6682 38.3477 13 43.5625C12.6163 46.5939 13.6328 46.9756 16 47.0625C22.7375 43.1905 25.5898 40.2243 28.5 33.0625C27.9905 30.9031 27.1602 30.5047 24.5 31.5625C21.9091 33.9012 21.4595 35.2148 21.5 37.5625C21.7904 39.2002 23.4541 39.4929 27.5 39.5625"></path> 
      </g>
     
     <g transform="translate(346, 0)">
      <path style="stroke-dasharray:86; stroke-dashoffset:86; animation: dash 0.058823529411764705s linear 5.9411764705882355s  forwards" d="M0 47.1659C5.62512 44.7302 11.0997 40.2814 21 32.1659C23.1626 30.8073 23.2955 31.4129 23 33.1659C17.3497 38.7271 15.9032 40.7174 15 43.1659C14.2078 46.8218 15.2822 47.281 20 45.1659C23.2997 42.9992 25.4344 41.0643 31 33.1659C31.4711 31.1398 31.7305 30.0091 28.5 32.1659C25.9413 34.735 24.9351 36.2472 24.5 39.1659C24.9755 40.1676 26.2501 40.0447 29.5 39.1659"></path> 
      </g>
     </svg>