<?xml version="1.0" encoding="UTF-8"?>
<svg width="752pt" height="752pt" version="1.1" viewBox="0 0 752 752" xmlns="http://www.w3.org/2000/svg">
 <path d="m281.29 219.72c-35.777 0-62.293 0.79688-82.434 6.3633-10.07 2.7852-19 6.9805-25.75 14.059-6.75 7.082-10.211 17.078-10.211 26.938v217.85c0 9.8594 3.4609 19.855 10.211 26.934 6.75 7.082 15.68 11.129 25.75 13.91 20.141 5.5703 46.656 6.5117 82.434 6.5117h189.43c35.777 0 62.293-0.94531 82.434-6.5117 10.07-2.7852 19-6.832 25.75-13.91 6.75-7.082 10.211-17.074 10.211-26.934v-217.85c0-9.8594-3.4609-19.855-10.211-26.934-6.7539-7.082-15.684-11.277-25.754-14.062-20.137-5.5664-46.652-6.3633-82.43-6.3633h-189.43zm0 28.414h189.43c35.129 0 60.656 1.3945 74.887 5.3281 7.1133 1.9648 11.023 4.4297 12.727 6.2148 1.7031 1.7891 2.3672 3.1094 2.3672 7.3984v217.85c0 4.2891-0.66406 5.4648-2.3672 7.25-1.7031 1.7891-5.6133 4.25-12.727 6.2148-14.23 3.9375-39.758 5.4805-74.887 5.4805h-189.43c-35.129 0-60.656-1.543-74.887-5.4766-7.1133-1.9648-11.02-4.4258-12.727-6.2148-1.7031-1.7852-2.3672-2.9609-2.3672-7.25v-217.85c0-4.2891 0.66406-5.6133 2.3672-7.3984 1.7031-1.7891 5.6133-4.25 12.727-6.2148 14.23-3.9375 39.758-5.332 74.887-5.332zm15.836 4.7344c-29.844 0-52.031 0.53906-69.113 4.8828-8.543 2.1719-16.191 5.457-22.348 11.395-6.1562 5.9453-9.6211 14.789-9.6211 23.242v167.09c0 8.4492 3.4648 17.441 9.6211 23.383 6.1562 5.9414 13.805 9.0742 22.348 11.246 17.082 4.3438 39.27 5.0312 69.113 5.0312h157.76c29.844 0 52.031-0.6875 69.113-5.0312 8.543-2.1719 16.191-5.3086 22.348-11.246 6.1562-5.9414 9.6172-14.934 9.6172-23.387v-167.08c0-8.4531-3.4609-17.297-9.6172-23.238-6.1562-5.9375-13.805-9.2227-22.348-11.395-17.086-4.3438-39.273-4.8828-69.113-4.8828h-157.76zm0 28.414h157.76c29.246 0 50.602 1.2031 62.156 4.1445 5.7773 1.4688 8.7305 3.2852 9.6211 4.1445 0.89062 0.85938 0.88672 0.41406 0.88672 2.8125v167.09c0 2.3984 0.003906 1.9531-0.88672 2.8125s-3.8398 2.8242-9.6211 4.293c-11.555 2.9375-32.91 4.1445-62.156 4.1445h-157.76c-29.246 0-50.602-1.207-62.156-4.1445-5.7812-1.4688-8.7305-3.4336-9.6211-4.293s-0.88672-0.41406-0.88672-2.8125v-167.08c0-2.3984-0.003906-1.9531 0.88672-2.8125s3.8398-2.6758 9.6211-4.1445c11.555-2.9414 32.91-4.1445 62.156-4.1445zm30.191 28.414c-6.9844 0.66406-12.906 7.1953-12.875 14.211v104.19c0.015625 4.8945 2.7617 9.6953 6.9727 12.188 4.2148 2.4922 9.7422 2.5898 14.039 0.24219l94.715-52.094c4.4844-2.418 7.4648-7.4102 7.4648-12.504 0-5.0977-2.9766-10.086-7.4648-12.504l-94.715-52.094c-2.4688-1.332-5.3438-1.9062-8.1367-1.6289zm15.539 38.188 50.91 28.117-50.91 27.973z"/>
</svg>
