<?xml version="1.0" standalone="no"?>
<!DOCTYPE svg PUBLIC "-//W3C//DTD SVG 20010904//EN"
 "http://www.w3.org/TR/2001/REC-SVG-20010904/DTD/svg10.dtd">
<svg version="1.0" xmlns="http://www.w3.org/2000/svg"
 width="1389.000000pt" height="1389.000000pt" viewBox="0 0 1389.000000 1389.000000"
 preserveAspectRatio="xMidYMid meet">
<metadata>
Created by potrace 1.14, written by Peter Selinger 2001-2017
</metadata>
<g transform="translate(0.000000,1389.000000) scale(0.100000,-0.100000)"
fill="#000000" stroke="none">
<path d="M6507 13755 c-98 -74 -186 -136 -195 -139 -9 -2 -103 -25 -208 -51
l-191 -46 -199 -123 c-109 -67 -273 -169 -363 -226 l-164 -105 -165 -185 c-90
-102 -242 -279 -337 -395 -95 -115 -227 -273 -293 -350 l-120 -139 -100 -226
c-154 -345 -204 -486 -251 -716 l-42 -198 16 -175 c9 -97 34 -324 56 -506 35
-290 45 -349 85 -487 24 -87 44 -176 44 -199 0 -68 23 -93 119 -134 54 -22
102 -35 129 -35 96 0 161 -101 207 -322 35 -170 79 -320 120 -405 30 -65 37
-73 62 -73 23 0 31 -6 40 -30 15 -40 35 -46 106 -31 55 11 63 11 86 -6 20 -16
27 -34 38 -96 7 -42 35 -144 63 -228 27 -83 50 -157 50 -165 0 -28 103 -194
142 -230 53 -48 84 -60 225 -85 106 -19 145 -21 388 -17 l270 5 145 38 c186
48 236 70 287 129 44 50 52 74 78 237 16 98 19 106 38 101 18 -5 20 -1 15 41
-5 39 -3 46 14 50 18 5 20 13 16 73 -2 48 1 69 10 71 21 8 13 42 -13 59 -23
15 -25 22 -25 89 0 112 6 116 171 127 74 5 167 15 208 23 109 22 129 20 142
-12 24 -58 40 -156 28 -164 -17 -10 -3 -53 22 -64 12 -5 30 -30 39 -55 90
-229 228 -439 333 -508 l42 -27 270 -3 270 -3 185 35 c113 22 241 54 328 83
180 60 207 82 246 198 26 79 26 82 26 381 l0 300 28 26 c23 22 38 27 99 30 64
3 76 7 103 33 19 18 30 39 30 56 0 42 10 59 34 59 26 0 66 38 66 62 0 9 9 20
20 23 12 4 37 22 55 41 l35 35 0 -77 c0 -55 8 -105 31 -183 27 -94 36 -111 77
-153 l46 -48 33 58 c31 54 33 62 33 159 0 99 1 104 49 215 26 63 58 132 70
155 14 28 21 61 21 96 0 67 11 78 140 142 52 26 122 66 154 88 57 38 62 40
106 31 47 -10 110 1 110 18 0 5 -12 30 -27 55 -22 38 -28 62 -31 131 -4 70
-12 105 -50 201 -41 106 -47 132 -65 296 -21 177 -21 184 -4 445 10 146 17
339 17 430 l0 165 -57 110 c-38 73 -74 125 -105 156 -42 41 -48 51 -48 88 0
33 -9 55 -37 97 l-38 54 -60 0 -61 0 -36 73 c-20 39 -46 86 -57 103 l-21 31
55 73 55 74 0 85 c0 64 -8 114 -30 196 -20 72 -30 134 -30 179 0 66 -2 72 -39
116 -21 25 -61 80 -88 123 -53 84 -70 97 -285 230 -211 130 -291 157 -466 157
-130 0 -138 3 -290 93 -156 94 -439 210 -585 242 -90 19 -147 39 -243 85 -121
57 -131 60 -276 80 -124 16 -204 20 -452 20 l-301 -1 -178 -134z m2161 -1392
c43 -43 113 -112 156 -153 117 -113 225 -278 277 -423 12 -32 34 -73 50 -92
21 -24 38 -66 65 -161 19 -71 35 -142 36 -159 0 -16 -16 -75 -36 -130 -20 -55
-36 -102 -36 -105 0 -3 40 -37 89 -75 50 -38 89 -71 88 -72 -2 -1 -41 4 -87
12 -47 7 -86 12 -88 10 -2 -2 29 -20 68 -41 l72 -39 -96 -3 c-53 -1 -96 -6
-96 -10 0 -3 26 -33 58 -65 l57 -58 -54 20 c-30 11 -57 19 -59 17 -2 -3 15
-32 37 -65 23 -33 41 -62 41 -65 0 -4 -20 -6 -45 -6 l-45 0 0 -65 c0 -62 -1
-65 -24 -65 l-25 0 24 -55 25 -55 -25 0 c-25 0 -25 -1 -25 -90 l0 -89 73 -49
c39 -27 113 -81 163 -120 78 -60 96 -80 127 -140 l37 -70 0 -296 0 -296 -71
-75 c-40 -41 -98 -91 -129 -110 -37 -22 -62 -46 -70 -65 -12 -28 -16 -30 -66
-30 -37 0 -54 -4 -54 -12 0 -10 -74 -12 -347 -10 -347 3 -348 4 -390 28 -39
23 -50 24 -205 24 l-164 0 -34 -30 -35 -30 37 15 c21 9 67 15 105 14 61 0 65
-2 38 -11 -16 -6 -46 -25 -66 -43 -26 -23 -50 -34 -85 -39 -172 -24 -558 -120
-712 -176 -29 -11 -105 -29 -170 -41 -122 -22 -204 -22 -703 -3 l-156 6 5 48
c2 26 -1 57 -7 69 -11 20 -9 21 26 22 l38 1 -40 13 c-68 23 -173 17 -332 -16
-151 -32 -265 -69 -350 -113 l-48 -25 50 -2 50 -1 -55 -9 c-217 -34 -418 -75
-494 -101 -48 -16 -98 -27 -110 -24 -12 3 -29 19 -39 36 -10 17 -42 48 -71 70
-49 37 -53 43 -69 112 -10 41 -17 113 -17 163 0 58 -11 150 -30 255 -21 114
-30 195 -30 265 1 91 4 107 33 175 30 68 39 79 98 120 l64 45 -37 3 c-42 4
-44 6 -23 42 21 37 19 40 -25 40 -45 0 -48 5 -20 40 11 14 20 28 20 32 0 4
-35 -9 -77 -28 l-78 -36 29 30 c19 20 62 43 130 68 55 20 105 41 111 46 5 4
-16 8 -48 8 -31 0 -57 4 -57 9 0 5 7 25 15 44 22 54 19 60 -22 34 -86 -54 -88
-54 -44 16 23 35 41 67 41 70 0 3 -24 -4 -52 -17 -29 -13 -64 -27 -77 -31 -23
-7 -23 -5 11 41 33 46 68 106 68 118 0 3 -37 -10 -82 -29 l-83 -35 67 62 c41
38 74 79 83 103 13 31 38 56 106 108 l89 68 0 74 c0 41 3 75 7 75 5 0 44 -12
87 -26 l79 -27 57 32 c50 27 67 31 134 31 64 0 85 -4 129 -27 45 -24 67 -29
162 -33 l110 -5 -33 -23 c-28 -21 -47 -24 -162 -29 -72 -3 -133 -9 -135 -13
-3 -4 51 -13 118 -20 91 -9 140 -10 192 -1 38 5 70 9 71 8 2 -1 -40 -17 -92
-36 -52 -18 -93 -35 -91 -37 12 -12 264 60 357 102 58 26 146 59 195 75 l90
28 -45 -40 c-25 -21 -74 -55 -110 -74 l-65 -34 47 -1 c42 0 60 8 170 80 128
84 160 116 265 263 43 62 77 94 152 149 53 39 148 121 211 183 l115 113 265
122 c150 69 317 154 385 196 110 68 126 82 185 160 l65 85 225 129 c124 71
293 174 375 229 83 55 153 100 158 100 4 1 42 -34 85 -76z m105 -3392 c102 -7
121 -11 142 -31 25 -24 27 -24 175 12 25 6 61 13 80 16 31 4 33 3 22 -11 -8
-10 -46 -20 -103 -28 -130 -17 -125 -10 -120 -181 11 -347 4 -473 -30 -582
-31 -103 -59 -126 -213 -176 -203 -67 -473 -111 -719 -117 -290 -8 -341 6
-444 122 -35 39 -77 109 -137 228 -47 95 -74 157 -60 139 21 -26 29 -30 40
-21 31 25 17 49 -70 121 -35 29 -81 161 -65 189 5 10 9 27 9 37 0 38 84 77
268 127 195 53 342 85 390 85 30 0 32 -2 32 -35 0 -85 86 -165 178 -165 63 0
182 48 193 77 12 31 12 119 0 160 -8 28 -7 32 12 36 38 7 298 6 420 -2z m-603
-86 c0 -8 -7 -15 -15 -15 -8 0 -15 7 -15 15 0 8 7 15 15 15 8 0 15 -7 15 -15z
m-2345 -67 c-45 -16 -55 -27 -55 -64 l0 -34 -82 0 c-45 0 -79 2 -77 5 14 14
158 89 184 95 44 12 65 10 30 -2z m155 -59 c0 -5 -4 -9 -10 -9 -5 0 -10 7 -10
16 0 8 5 12 10 9 6 -3 10 -10 10 -16z m-200 -81 c1 -20 32 -53 78 -82 34 -21
53 -26 109 -26 103 0 133 12 178 71 l39 52 166 -5 c157 -5 168 -6 207 -31 108
-68 118 -164 52 -512 -31 -170 -51 -258 -65 -290 -21 -52 -105 -102 -201 -120
-44 -8 -107 -25 -140 -37 -53 -19 -83 -22 -348 -26 -263 -4 -301 -2 -408 17
-107 19 -124 25 -171 61 -39 30 -62 58 -93 117 -63 120 -144 359 -178 528 -9
44 -21 85 -26 91 -12 14 25 48 74 69 114 48 469 114 710 134 9 0 17 -5 17 -11z
m-955 -179 l40 -6 -46 -2 c-34 -1 -49 3 -53 15 -4 10 -2 13 7 7 6 -4 30 -10
52 -14z m125 11 c11 -7 3 -10 -30 -10 -33 0 -41 3 -30 10 8 5 22 10 30 10 8 0
22 -5 30 -10z"/>
<path d="M5050 9902 c0 -18 11 -79 25 -134 14 -55 24 -103 21 -105 -3 -3 -19
7 -37 21 -17 15 -33 25 -36 23 -2 -3 3 -32 11 -65 11 -41 16 -106 16 -207 l0
-147 -65 83 c-36 45 -65 76 -65 68 0 -39 62 -233 94 -298 l37 -73 -35 -116
c-19 -64 -34 -118 -31 -120 2 -2 17 4 34 14 20 12 38 37 56 81 15 34 54 103
87 153 l59 90 -20 27 c-19 23 -21 39 -21 177 0 201 -16 292 -79 441 -40 96
-50 113 -51 87z"/>
<path d="M8787 9703 l25 -101 64 -57 c61 -54 64 -58 64 -103 l0 -47 68 -32
c37 -17 91 -45 120 -62 l52 -31 0 41 c0 29 -11 61 -35 105 -29 52 -35 72 -35
123 0 48 -7 75 -36 138 l-36 78 -16 -35 c-8 -19 -17 -63 -20 -98 l-4 -63 -31
3 c-26 3 -37 12 -67 65 -19 33 -58 87 -87 120 l-52 58 26 -102z"/>
<path d="M8390 9520 c-58 -10 -126 -27 -151 -38 -26 -11 -96 -30 -155 -42 -74
-15 -171 -47 -299 -98 -150 -59 -205 -76 -262 -81 -82 -7 -113 -27 -113 -74 0
-21 -14 -46 -50 -87 -27 -32 -50 -60 -50 -63 0 -3 34 -13 76 -23 l77 -17 101
32 c56 18 129 36 161 40 40 6 64 15 75 28 11 14 33 22 70 26 30 3 107 18 170
33 96 24 133 28 223 26 59 -1 142 -3 185 -4 117 -3 295 12 410 33 58 11 148
19 205 19 l102 0 -80 44 c-44 23 -105 58 -135 76 -30 18 -94 45 -141 61 -47
15 -133 49 -190 74 -57 26 -108 48 -114 50 -5 2 -57 -5 -115 -15z"/>
<path d="M5418 9175 c-53 -36 -145 -113 -204 -170 l-108 -104 39 -17 c22 -9
87 -21 144 -25 87 -7 109 -6 128 6 13 9 65 24 115 35 51 11 127 27 168 36 100
22 657 28 707 7 47 -19 235 -17 273 2 39 20 38 45 -4 70 -19 11 -69 47 -111
79 -67 52 -86 62 -158 78 -45 9 -109 18 -143 18 -34 0 -103 9 -155 21 -76 17
-141 22 -344 26 l-250 5 -97 -67z"/>
<path d="M8476 8918 c27 -29 73 -81 102 -115 44 -52 52 -68 52 -102 0 -23 3
-41 8 -41 4 0 20 19 36 41 19 27 47 49 85 67 l56 26 -56 6 c-55 5 -57 6 -134
88 l-77 82 -61 0 -61 0 50 -52z"/>
<path d="M7488 8787 c-102 -24 -99 -19 -67 -137 19 -69 28 -84 73 -128 74 -72
148 -92 333 -91 l138 0 -140 43 c-135 40 -225 80 -225 98 0 5 5 18 10 29 10
17 7 19 -32 19 -43 0 -44 1 -61 46 -16 44 -16 48 1 76 9 17 35 39 57 49 51 23
24 22 -87 -4z"/>
<path d="M8278 8461 c-54 -10 -100 -20 -102 -22 -3 -2 43 -17 101 -33 76 -21
107 -35 112 -48 6 -17 10 -16 46 15 76 64 84 67 167 67 72 0 90 -4 257 -57 9
-3 -7 9 -35 25 -115 69 -336 90 -546 53z"/>
<path d="M6347 8661 c-8 -9 -19 -26 -26 -37 -10 -20 -7 -23 29 -38 68 -27 80
-23 80 27 0 41 -2 44 -34 54 -29 9 -37 8 -49 -6z"/>
<path d="M5415 8611 c-27 -10 -104 -28 -170 -41 -66 -13 -114 -25 -107 -28 16
-5 235 43 302 67 30 11 48 20 40 20 -8 0 -37 -8 -65 -18z"/>
<path d="M6226 8518 c-78 -24 -120 -58 -152 -120 -14 -27 -24 -51 -22 -52 2
-1 27 -12 57 -24 102 -42 254 -16 304 52 14 19 27 26 53 26 29 0 34 3 34 24 0
20 -11 29 -57 51 -32 15 -80 35 -108 44 -48 17 -53 17 -109 -1z"/>
<path d="M10185 9542 c-16 -10 -49 -43 -72 -73 -23 -30 -89 -100 -147 -156
-57 -56 -109 -111 -116 -122 -9 -18 -8 -21 11 -21 14 0 67 46 155 132 l134
131 0 -105 c0 -96 3 -114 35 -199 35 -94 35 -95 35 -261 l0 -168 -34 -83 c-64
-153 -114 -247 -179 -335 -35 -48 -83 -119 -105 -159 -61 -109 -142 -204 -201
-235 l-51 -28 0 30 c0 16 -9 52 -20 80 -23 58 -27 142 -7 135 6 -3 29 19 50
47 29 41 37 61 37 95 0 41 1 43 30 43 27 0 30 3 30 34 0 18 7 39 16 46 34 29
46 81 40 170 -3 47 -8 96 -11 110 -6 22 0 30 32 50 29 19 39 33 41 57 3 32 1
33 -84 73 -48 22 -90 38 -93 34 -3 -3 -27 -65 -52 -137 l-46 -132 -13 73 c-7
39 -16 72 -19 72 -3 0 -24 -60 -46 -133 -36 -119 -40 -145 -45 -272 l-5 -140
-18 90 c-20 98 -75 284 -89 300 -4 5 -8 -22 -8 -61 0 -50 -10 -104 -35 -191
-34 -119 -35 -126 -35 -303 0 -139 4 -189 15 -217 8 -20 13 -38 10 -41 -3 -3
-5 1 -5 8 0 27 -18 -5 -34 -59 -9 -30 -16 -82 -16 -115 l0 -61 19 24 c20 26
24 23 46 -38 12 -36 12 -51 -6 -146 l-21 -106 20 -117 c20 -115 20 -118 1
-202 -10 -47 -19 -122 -19 -167 0 -71 -7 -104 -54 -250 -29 -92 -74 -210 -100
-260 -25 -51 -46 -95 -46 -99 0 -3 21 13 47 36 109 96 208 294 244 490 15 87
19 153 19 395 0 286 13 444 39 493 15 28 14 69 -1 75 -7 3 17 6 54 6 65 1 67
2 102 43 28 32 36 50 36 81 0 31 3 37 13 29 10 -8 28 -1 73 27 68 43 145 134
204 242 22 39 69 110 104 158 69 93 125 198 180 338 l36 90 0 184 0 184 -35
94 c-32 85 -35 104 -35 197 0 67 -4 104 -11 106 -13 4 11 59 39 91 20 22 5 22
-33 -1z m-565 -1137 c-6 -52 -7 -46 -7 55 -1 96 1 106 7 60 5 -30 5 -81 0
-115z m0 -165 c-6 -10 -9 1 -9 35 1 48 1 49 9 15 5 -19 4 -41 0 -50z"/>
<path d="M9776 9226 c-33 -79 -47 -152 -44 -226 l3 -75 61 -3 c48 -2 65 1 86
17 l25 20 -49 143 c-27 79 -53 147 -58 152 -5 5 -15 -7 -24 -28z"/>
<path d="M7180 8401 l-23 -50 27 -65 c25 -64 26 -73 26 -269 l0 -203 31 -18
c50 -30 108 -95 130 -147 19 -44 25 -49 72 -63 28 -8 53 -14 55 -12 10 11 -35
129 -70 183 -47 73 -78 180 -78 272 0 82 -47 242 -100 344 -23 42 -42 77 -44
77 -1 0 -13 -22 -26 -49z"/>
<path d="M6787 8310 c-4 -14 -17 -88 -31 -165 -14 -77 -37 -171 -51 -208 -13
-37 -23 -67 -22 -67 14 0 105 146 124 197 28 77 28 106 4 198 -15 56 -19 65
-24 45z"/>
<path d="M9043 7375 c-35 -121 -35 -127 -13 -216 12 -46 28 -120 36 -163 7
-43 16 -81 19 -84 11 -11 5 317 -6 345 -7 15 -15 57 -18 93 l-7 65 -11 -40z"/>
<path d="M7460 7203 c-30 -20 -82 -61 -115 -91 -33 -30 -93 -76 -132 -103 -40
-27 -73 -51 -73 -53 0 -13 138 39 168 63 43 34 212 205 212 215 0 8 1 9 -60
-31z"/>
<path d="M5362 7210 c3 -14 13 -65 24 -114 l19 -89 62 -55 63 -56 0 -92 0 -92
112 -218 c61 -120 146 -268 188 -329 91 -132 196 -350 254 -528 l42 -127 92
-86 c51 -47 92 -83 92 -79 0 4 -20 44 -44 88 -52 96 -142 306 -181 427 -46
138 -97 239 -173 339 -140 182 -280 444 -341 638 -34 109 -54 153 -117 255
-85 138 -99 155 -92 118z"/>
<path d="M8230 7206 c0 -18 142 -152 208 -196 44 -30 56 -45 79 -100 17 -43
28 -92 32 -145 5 -62 9 -80 21 -80 11 0 16 15 18 61 2 52 -3 76 -33 152 -37
91 -37 91 -124 156 -48 36 -106 88 -130 116 -41 49 -71 64 -71 36z"/>
<path d="M8858 6913 c-29 -91 -38 -139 -38 -191 0 -57 -9 -97 -51 -223 -88
-265 -124 -345 -185 -415 -53 -60 -54 -63 -46 -102 5 -22 6 -44 2 -49 -4 -4
-21 -46 -38 -94 -25 -67 -32 -101 -32 -160 0 -73 -1 -78 -55 -168 -108 -182
-211 -305 -352 -418 -89 -72 -98 -76 -235 -120 -84 -27 -217 -58 -327 -78
l-186 -33 189 -1 c219 -1 356 18 551 76 218 64 410 201 587 416 79 96 401 409
511 497 l67 54 0 55 c0 34 6 61 15 71 33 36 28 155 -9 205 -13 18 -17 15 -85
-45 -45 -40 -106 -111 -165 -194 -52 -73 -152 -194 -223 -271 -71 -77 -164
-183 -207 -235 -44 -52 -129 -142 -190 -200 l-110 -105 81 100 c95 117 184
277 202 361 7 32 16 112 20 177 7 106 10 120 33 145 66 71 105 149 196 387 60
159 125 485 120 607 l-3 73 -37 -122z"/>
<path d="M6160 6683 c19 -8 50 -26 68 -40 85 -64 311 -147 447 -163 39 -5 113
-14 165 -20 52 -6 117 -18 144 -26 82 -23 187 -18 306 16 90 26 122 30 225 30
182 1 307 30 464 109 68 35 133 64 144 67 11 2 31 11 46 21 l26 18 -37 3 c-39
3 -83 -15 -178 -76 -80 -51 -170 -82 -238 -82 -31 0 -73 -5 -92 -11 -19 -6
-105 -14 -190 -19 -116 -6 -170 -13 -214 -29 -66 -23 -121 -27 -163 -10 -28
11 -117 22 -323 38 -58 4 -118 14 -135 20 -16 7 -90 30 -163 51 -82 24 -146
48 -167 65 -41 30 -106 55 -144 54 -25 -1 -24 -1 9 -16z"/>
<path d="M5378 5965 c-36 -24 -100 -81 -142 -128 -42 -46 -117 -114 -166 -152
-62 -48 -117 -103 -180 -181 -104 -128 -398 -419 -534 -529 -85 -68 -100 -76
-216 -113 -229 -74 -736 -264 -1008 -378 -105 -44 -294 -163 -712 -447 -113
-77 -294 -190 -402 -252 -187 -108 -207 -122 -385 -279 -169 -150 -190 -172
-215 -228 -27 -58 -28 -68 -28 -214 l0 -153 -30 -16 -30 -16 30 -59 30 -59 0
-1356 0 -1355 740 0 c487 0 740 -3 740 -10 0 -12 3667 -14 3673 -2 2 4 -27
239 -64 522 -37 283 -82 634 -99 780 -17 146 -60 434 -95 640 -35 206 -73 436
-84 510 -12 74 -32 214 -47 310 -14 96 -39 240 -55 319 -16 79 -27 146 -25
148 2 2 7 -9 11 -24 8 -34 97 -242 175 -413 32 -69 79 -190 105 -270 28 -84
83 -217 131 -317 46 -94 84 -177 84 -183 0 -7 16 -10 42 -8 l42 3 18 65 c23
89 23 193 -1 262 -16 46 -17 59 -7 75 7 10 41 79 76 153 35 74 77 152 94 174
l30 39 24 -29 c13 -16 60 -75 104 -132 90 -115 155 -168 443 -358 199 -131
258 -154 299 -115 13 13 27 35 31 49 3 15 13 50 21 78 l15 51 46 -8 c25 -5 49
-7 52 -4 3 3 -22 34 -55 68 -34 34 -107 123 -164 197 -132 171 -366 452 -501
600 -164 180 -543 639 -664 805 -60 83 -185 252 -277 376 -92 125 -192 265
-223 310 -30 46 -58 89 -62 94 -5 6 -19 33 -33 60 -14 27 -64 105 -112 174
-111 160 -192 306 -185 332 4 14 -10 42 -41 86 -40 58 -50 84 -79 202 -19 75
-38 177 -42 228 -13 131 -13 132 -93 78z m2153 -3422 c13 -16 12 -17 -3 -4
-10 7 -18 15 -18 17 0 8 8 3 21 -13z"/>
<path d="M9220 5791 c0 -38 7 -103 15 -143 15 -68 15 -74 -2 -85 -9 -7 -22
-13 -28 -13 -7 0 -26 -46 -43 -102 -34 -116 -42 -95 -16 42 8 45 13 84 11 86
-2 2 -20 -19 -39 -48 -27 -41 -36 -68 -41 -117 -4 -35 -20 -103 -37 -151 -16
-48 -30 -90 -30 -94 0 -3 11 -6 24 -6 23 0 23 -2 15 -37 -10 -44 -39 -254 -39
-285 0 -20 1 -20 13 -5 11 16 14 16 33 2 16 -11 23 -30 28 -72 13 -109 18
-130 27 -108 15 38 10 -454 -6 -555 -8 -52 -15 -135 -15 -184 0 -138 -52 -379
-105 -486 -23 -47 -48 -101 -55 -120 -8 -19 -49 -72 -91 -118 -43 -46 -108
-120 -146 -166 -37 -46 -84 -93 -103 -106 -73 -48 -180 -132 -249 -196 -59
-55 -70 -70 -65 -90 4 -17 -3 -34 -30 -67 -35 -43 -36 -46 -36 -130 l0 -86
-51 -68 c-29 -37 -58 -72 -65 -78 -36 -29 -205 -328 -192 -340 2 -2 28 32 58
75 30 43 56 77 58 75 2 -2 -2 -21 -8 -43 -14 -46 -4 -68 64 -139 35 -38 46
-43 83 -43 28 0 57 9 88 27 44 27 45 29 45 80 0 62 -23 127 -59 166 -24 27
-30 29 -88 25 l-63 -4 26 27 c16 16 50 34 86 44 52 14 73 28 137 88 42 40 108
101 148 136 65 58 154 174 197 258 9 19 40 46 77 68 38 24 79 60 111 101 35
45 63 70 96 84 26 12 63 36 82 55 32 32 142 107 147 101 1 -1 -4 -26 -12 -56
-20 -73 -21 -282 -2 -274 7 2 34 -11 60 -31 37 -29 49 -45 61 -88 8 -28 33
-252 56 -497 53 -570 113 -1066 149 -1250 16 -80 46 -289 66 -465 20 -176 38
-330 41 -343 l4 -22 1470 0 1470 0 0 1944 0 1944 -127 84 c-71 46 -180 115
-243 153 -63 37 -182 113 -265 169 -190 127 -486 266 -785 367 -352 119 -728
236 -914 283 -147 37 -185 51 -210 74 -268 246 -293 273 -406 422 -103 137
-291 339 -359 386 -21 15 -21 15 -21 -55z m-100 -906 c-5 -26 -8 17 -7 115 l0
155 7 -115 c4 -64 4 -133 0 -155z m-860 -2628 c0 -2 -10 -12 -22 -23 l-23 -19
19 23 c18 21 26 27 26 19z"/>
<path d="M8941 4600 c-74 -257 -200 -655 -266 -843 -49 -142 -55 -166 -55
-240 l0 -82 75 -27 75 -27 0 75 c0 71 3 80 58 192 53 106 62 132 90 277 36
185 84 654 80 777 l-3 83 -54 -185z"/>
<path d="M8142 1226 c-43 -15 -72 -77 -72 -153 0 -46 5 -61 29 -92 16 -20 45
-45 65 -55 35 -19 39 -19 90 -3 49 16 57 23 90 78 50 84 50 135 0 195 l-35 44
-67 -1 c-37 0 -82 -6 -100 -13z"/>
<path d="M8180 387 c-36 -22 -61 -47 -80 -82 l-28 -50 29 -71 c28 -66 34 -72
84 -97 l53 -26 64 43 c55 37 66 49 82 95 18 51 18 55 2 108 -16 50 -21 56 -64
75 -91 39 -86 39 -142 5z"/>
</g>
</svg>
