              <svg  viewBox="0 0 461 311" fill="none"
                xmlns="http://www.w3.org/2000/svg" style=" height:auto; overflow:visible">
                <g>
                  <g>
                    <path
                      d="M408 206.5C428.215 194.542 437.288 186.05 446 165L420.5 153C367.96 143.337 343.583 143.167 307.5 150.5C307.193 158.251 306.097 162.137 303 168.5C304.314 173.895 307.218 180.962 312.5 186.5C325.797 196.185 334.336 200.445 351 206.5C372.46 212.749 384.97 212.513 408 206.5Z"
                      fill="white" stroke="black" stroke-width="5" />
                    <path
                      d="M423 152C440.304 137.024 450.079 124.397 457 92H405.5C353.618 95.5796 334.055 104.356 309 127V152C315.961 157.604 321.811 160.459 336 165C371.022 168.654 390.09 165.964 423 152Z"
                      fill="white" stroke="black" stroke-width="5" />
                    <path
                      d="M423 92.0147C397.013 122.132 371.18 128.902 309 126.515L299 109.515C320.603 84.5365 334.775 71.9414 364.5 52.5147C395.896 36.2955 412.131 30.6714 437 31.0147C436.464 57.7667 433.434 71.1438 423 92.0147Z"
                      fill="white" stroke="black" stroke-width="5" />
                  </g>
                  <path
                    d="M164 18.5001C164 18.5001 185.5 63.5001 186.5 67.0001C187.5 70.5001 192 68.5001 192 68.5001C221.771 59.2959 239.498 58.3676 274 68.5001C274 68.5001 277.5 70.5001 278.5 67.0001C279.5 63.5001 298 17.0001 298 17.0001C298 17.0001 302 8.5 293.5 15.0001C285 21.5001 268 34.0001 268 34.0001C263.905 36.9598 261.809 37.083 258.5 34.0001L235.5 6.50007C232.928 2.26024 231.377 1.18289 228 6.50007L206 34.0001C202.681 36.1104 200.819 36.3928 197.5 34.0001L170 15.0001C163.582 11.3865 162.213 12.0864 164 18.5001Z"
                    fill="white" stroke="black" stroke-width="5" />
                  <g>
                    <path
                      d="M55.5 206.5C35.2851 194.542 26.2125 186.05 17.5 165L39.5 154.5C80.2895 140.497 105.192 139.92 153 151C155.024 160.737 156.461 165.407 159.5 172.5C158.186 177.895 156.282 180.962 151 186.5C137.703 196.185 129.164 200.445 112.5 206.5C91.0403 212.749 78.5304 212.513 55.5 206.5Z"
                      fill="white" stroke="black" stroke-width="5" />
                    <path
                      d="M38 152C20.6964 137.024 10.9208 124.397 4 92H55.5C98.7738 92.6708 119.88 100.148 152 126C151.744 137.044 152.279 142.27 154 150.5C147.039 156.104 139.189 160.459 125 165C89.9782 168.654 70.91 165.964 38 152Z"
                      fill="white" stroke="black" stroke-width="5" />
                    <path
                      d="M39 92C64.9874 122.117 90.8201 128.887 153 126.5C156.685 117.956 158.869 114.221 163 109.5C141.397 84.5218 127.225 71.9267 97.5 52.5C66.1042 36.2808 49.8692 30.6567 25 31C25.5358 57.752 28.5655 71.1291 39 92Z"
                      fill="white" stroke="black" stroke-width="5" />
                  </g>
                  <path
                    d="M233.5 80.5C191.085 81.7412 174.61 92.1386 154.5 123C151.649 135.24 151.764 143.547 154.5 160.5C164.707 183.048 171.033 192.949 183 207.5C197.955 224.15 206.395 231.968 221.5 244.5C229.692 247.398 233.878 247.495 240.5 244.5C258.313 231.024 266.767 222.891 279.5 207.5C290.773 193.855 296.862 184.159 307 160.5C309.559 140.932 309.761 132.335 307 123C286.522 90.8208 270.22 81.9114 233.5 80.5Z"
                    fill="white" stroke="black" stroke-width="5" />
                  <path
                    d="M215.5 163C208.967 149.445 206.622 144.869 186.5 136.5L177 136.5C177 136.5 172.8 136.273 171 142C167.656 149.011 167.91 155.202 171 163C178.973 171.763 183.998 174.696 193.5 178C203.588 180.023 207.46 179.573 213.5 178C215.325 176.785 216.042 175.741 217 173.5C217.698 170.852 217.684 168.909 215.5 163Z"
                    fill="white" stroke="black" stroke-width="5" />
                  <path
                    d="M247.909 163.501C254.442 149.946 256.787 145.37 276.909 137.001L286.409 137.001C286.409 137.001 290.609 136.774 292.409 142.501C295.753 149.512 295.499 155.703 292.409 163.501C284.436 172.264 279.411 175.198 269.909 178.501C259.821 180.525 255.949 180.074 249.909 178.501C248.084 177.286 247.367 176.242 246.409 174.001C245.711 171.354 245.725 169.41 247.909 163.501Z"
                    fill="white" stroke="black" stroke-width="5" />
                  <text fill="black" stroke="black" xml:space="preserve" style="white-space: pre"
                    font-family="Times New Roman" font-size="75" letter-spacing="0em">
                    <tspan x="79.3901" y="309.305">malimalia</tspan>
                  </text>
                </g>
              </svg>