<svg width="1703" height="70" viewBox="0 0 1703 70" fill="none" xmlns="http://www.w3.org/2000/svg">
<g id="Frame 1">
<rect width="1703" height="70" fill="white"/>
<path id="N" d="M6.00598 27.4414C14.311 17.5753 19.4826 13.2462 29.506 7.4414C35.4874 4.36752 35.0821 6.60533 34.506 10.4414C34.0117 14.2874 25.0508 24.486 5.00598 46.4414C5.00598 46.4414 2.87286 49.3005 3.00598 45.4414C3.1391 41.5823 46.7552 11.0202 52.506 7.4414C58.2568 3.8626 59.4177 8.30171 57.506 10.4414C56.3525 12.0723 47.7772 20.9941 26.506 42.9414C23.0178 47.1564 25.1076 47.2166 29.506 46.9414" stroke="black"/>
<g id="letter_B">
<path id="B" d="M86.5 3L51 42.5C46.516 47.3737 44.8197 47.5399 43.5 42.5L61.5 10.5C76.5164 4.14615 94.5 4 99.5 7C104.5 10 102.5 12 100.5 14.5C98.5 17 84.4264 21.9352 65 24C76.1572 22.5436 80.8898 23.6681 87.5 28C90.7138 31.023 89.9206 33.2115 86.5 37.5C81.8199 42.7485 75.5 45.5 67.5 47C59.5 48.5 56.3351 46.1688 58 36.5" stroke="black"/>
<path id="Vector 47" d="M62.5 11.5L60.5 10L42 42.5H45L62.5 11.5Z" fill="#D9D9D9"/>
</g>
<path id="Z" d="M123.529 13.5201C118.359 16.3338 115.507 17.8085 111.529 18.0201C107.248 18.0714 106.191 17.7073 109.529 15.5201C119.02 8.17041 125.429 5.80484 139.029 5.02014C143.546 4.75507 144.077 7.09866 144.029 12.5201C144.104 19.2287 136.582 24.8539 116.529 36.5201C112.536 38.6647 104.529 40.0201 104.529 40.0201C104.529 40.0201 101.529 40.0201 104.529 38.0201C107.529 36.0201 115.529 38.0201 115.529 38.0201C119.152 38.9274 115.038 43.7331 104.529 54.5201C99.3131 58.6727 95.4542 60.5702 87.029 63.0201C84.6873 63.6076 83.8239 63.6506 84.0292 60.02C84.2554 56.02 102.529 45.02 102.529 45.02C109.083 41.5011 112.009 41.9906 117.029 43.52" stroke="black"/>
<path id="L" d="M190.32 6.18895C180.041 10.0512 175.577 13.8232 169.82 23.189C166.796 29.2067 168.973 28.8092 174.82 26.189C180.959 23.4325 183.536 18.87 186.82 6.18895C187.75 2.35502 186.38 1.92433 179.82 5.18895C160.843 19.0678 150.32 36.189 141.32 43.189C132.32 50.1889 127.32 44.689 127.32 43.189C127.32 41.6889 125.32 37.689 131.32 36.689C137.32 35.6889 140.32 36.189 144.82 38.189C149.32 40.1889 152.32 40.189 157.32 42.689C162.32 45.1889 165.82 42.689 165.82 42.689" stroke="black"/>
<g id="letter_K">
<path id="K" d="M193.729 4C192.843 9.1877 191.035 12.0227 186.229 17C195.403 7.6544 201.06 5.59326 211.729 5.5H220.729C220.729 5.5 203.116 29.6742 198.729 34.5C194.343 39.3258 190.553 45 186.229 45C181.906 45 179.615 41.2788 180.053 39C180.491 36.7212 181.04 34.9295 186.229 31.5L236.053 6.5H249.053C243.947 6.13753 239 9 239 9C236.229 10.3202 230.79 17.382 228 22C226.411 24.6304 223 27 220.729 28C218.459 29 207 29 206.553 26.5C206.106 24 206.621 23.8029 209.053 24.5C215.168 26.1291 216.592 28.3053 217.053 33.5C217.326 37.6249 215.338 39.9216 210.053 44C207.522 46.1389 209.851 46.2736 214.053 46.5" stroke="black"/>
<g id="Vector 43">
<path d="M210 18.5C209.376 19.8559 208.908 20.4766 208 21.5L187 32.5L185.5 30L210 18.5Z" fill="#D9D9D9"/>
<path d="M213.5 16.4999C211.77 18.5975 211.312 19.3841 211.5 20L240.5 7.49997L244.5 6C233.904 4.72388 226.485 7.81873 213.5 16.4999Z" fill="#D9D9D9"/>
<path d="M210 18.5C209.376 19.8559 208.908 20.4766 208 21.5L187 32.5L185.5 30L210 18.5Z" stroke="black"/>
<path d="M213.5 16.4999C211.77 18.5975 211.312 19.3841 211.5 20L240.5 7.49997L244.5 6C233.904 4.72388 226.485 7.81873 213.5 16.4999Z" stroke="black"/>
</g>
</g>
<g id="letter_X">
<path id="X" d="M251 17.1892C256.061 10.9351 259.5 8.18923 264 6.68919C268.5 5.18914 269.5 6.18909 268.5 9.18919C267.5 12.1893 255 43.1892 255 43.1892C253.514 46.2969 255 46.8649 260 46.6892L293.5 6.68919C267.934 20.7132 254.045 29.191 231 46.6892" stroke="black"/>
<path id="Vector 46" d="M262 46H259.5L288 11L296 8L262 46Z" fill="#D9D9D9"/>
</g>
<path id="J" d="M310.264 25.676C302.263 33.1464 298.024 35.3064 290.764 36.676C282.485 37.9525 281.174 35.199 283.264 25.676C283.502 22.9978 293.812 12.7305 315.264 6.676C326.431 4.45667 324.647 7.93759 322.264 13.676C312.792 29.689 285.264 58.176 277.764 63.676C270.264 69.176 263.264 65.676 269.264 59.676C275.264 53.676 295.764 44.176 299.264 43.176C302.764 42.176 302.764 45.676 302.764 45.676" stroke="black"/>
<g id="letter_H">
<path id="H" d="M335.5 5C334.613 10.1877 332.806 13.0227 328 18C337.174 8.6544 342.83 6.59326 353.5 6.5H362.5L340.5 35.5C335.465 41.419 334.676 43 328 46C321.324 49 320 40 320 40C320.438 37.7212 321.634 34.4295 326.824 31C331.147 27 337.824 24 344.824 27C350.824 31 356.824 43 356.824 44C356.824 45 356.324 46 354.824 46C353.324 46 353.5 43 353.5 43C356.299 36.1052 366.391 23.6176 376.824 9" stroke="black"/>
<path id="Vector 41" d="M344.5 24.0001C336.855 22.3213 332.981 23.9377 326.5 29.5001L329 32.0001L343 27.5001L344.5 24.0001Z" fill="#D9D9D9"/>
</g>
<path id="M" d="M376 29.0128C387.486 16.1537 393.308 10.0098 398.5 8.01284C403.965 6.12289 404.083 7.37391 402.5 11.0128C401.047 14.3537 393.165 24.2344 375 46.5128C374.084 47.0545 373.59 47.2477 373 46.0128C397.882 22.5572 408.066 13.4851 414.5 10.0128C418.441 7.95433 418.813 8.99248 418.5 12.0128C418.078 14.7889 410.185 25.1137 393.5 46.5128C393.5 46.5128 392.883 48.4175 392 46.0128C391.117 43.608 434.54 5.16069 436.5 5.01284C438.46 4.86499 440 6.01249 439.5 7.51284C439 9.01318 410.5 40.5132 409.5 43.0128C408.5 45.5124 409.13 46.1553 412 46.5128" stroke="black"/>
<path id="G" d="M467.832 10.4464C460.896 13.8487 458.473 15.8298 456.332 19.4464C454.081 24.2135 456.075 24.404 461.332 23.4464C466.745 20.9151 469.157 18.0958 472.332 10.4464C473.859 5.38803 471.086 5.31471 463.832 6.94639C431.792 18.7975 428.3 27.3056 421.832 42.4464C420.509 48.3737 423.6 48.4866 431.332 46.9464C435.523 45.9126 442.576 41.3763 463.832 25.9464C448.73 43.0505 440.177 52.2986 424.332 66.4464C414.167 71.1171 412.063 70.1321 413.332 64.9464C417.885 56.6301 423.831 52.7423 439.332 46.9464C444.153 46.0614 445.51 46.6103 446.832 48.4464" stroke="black"/>
<g id="letter_F">
<path id="F" d="M483 2.5L472 17C483.514 5.65758 491.526 4.58952 506.5 5C512.772 5.76468 519 6 523.5 5C528 4 526.817 1.18742 520.5 1C511.276 2.13454 484.267 40.8111 478.5 45C478.5 45 468.235 50.7668 468 43C468.205 39.8077 469.334 37.8632 474 34L475.5 27L502.5 25.5C503.689 25.5468 504.591 24.9271 506.5 23C508.449 20.6289 507.97 20.3276 504.5 21.5C502.375 22.3948 499.383 27.3028 495.5 32.5" stroke="black"/>
<path id="Vector 38" d="M477 29L475 26L472.5 33.5L475 34.5L477 29Z" fill="#D9D9D9"/>
</g>
<path id="D" d="M547.043 5L512.543 44.5C512.543 44.5 508.543 48 509.043 44.5C509.543 41 515.543 39 519.543 42C523.543 45 526.241 47.426 533.543 44.5C545.648 39.461 551.287 33.2768 559.043 15.5C560.337 10.8268 558.942 8.45905 550.043 8C537.874 8.45333 532.415 9.83202 523.543 13" stroke="black"/>
<path id="S" d="M560.9 29.756L583.713 5.23416C586.033 2.8626 584.825 0.130706 583.156 1.26476C581.487 2.39881 581.951 1.83175 582.6 16.5753C583.249 31.3188 583.713 33.5869 580.374 38.1234C577.036 42.6599 573.698 45.4952 565.352 44.9281C557.006 44.361 548.66 26.7823 562.014 20.5447C565.617 18.0456 575.367 23.38 568.69 30.7517" stroke="black"/>
<path id="A" d="M585 41.5C586.462 46.8677 588.134 46.8041 592 43.5C614.457 21.951 626.908 13.6599 649 2L615.5 46.5C622.776 38.4946 621.148 37.2237 621 34.5C619.851 30.2666 619.278 29.3763 613 26C606.602 25.1685 600.879 26.6111 598 29.5C594.138 35.577 601.598 39.6443 609.5 41.5C618.082 41.517 619.029 40.3854 630 38" stroke="black"/>
<path id="Q" d="M634 36.6019C640.35 21.7557 646.015 14.1232 665.5 3.60195C672.912 1.56285 673.578 4.78021 673.5 12.1019C669.278 25.5858 662.606 33.03 643 46.1019C638.386 46.9281 636.178 46.9419 635.5 43.1019C639.764 36.2689 646.968 37.404 659.5 39.1019" stroke="black"/>
<path id="W" d="M674 16.1302C679.587 10.2948 684.042 7.58805 694 3.63018C698.051 2.79753 697.832 3.79644 696.5 6.13018C678.116 22.3595 671.775 30.0418 665 42.1302C665.359 44.6226 666.459 45.2591 670.5 44.6302C677.718 41.5813 690.421 29.2256 711.5 9.13018C695.885 25.3839 691.335 32.6611 691 42.1302C691.218 45.1603 693.55 45.185 698.5 44.6302C706.255 41.2026 714.3 31.227 732 6.13018C732.71 2.83011 731.836 2.40408 728.5 3.63018C723.675 6.72579 721.402 8.82185 718 13.1302" stroke="black"/>
<path id="E" d="M759.682 13.5251C763.88 13.5122 766.3 12.4438 770.682 9.5251C772.012 7.51925 771.391 5.83535 767.182 4.0251C755.319 3.78272 749.656 5.24742 741.182 10.5251C736.107 13.8763 736.746 15.6003 741.182 18.5251C746.441 20.3666 749.703 20.8795 757.682 21.0159C739.357 22.5241 725.719 26.3013 721.182 33.0159C718.301 41.6185 720.457 44.361 730.182 46.0251C738.037 46.0183 742.136 43.8285 749.182 38.0251" stroke="black"/>
<path id="R" d="M755 46.0614L789 6.06139C807.188 5.44617 807.931 9.38467 799 21.0614C792.556 25.7209 787.811 27.1185 776.5 26.5614C780.405 32.9056 781.084 35.936 781.5 41.0614C782.023 46.4863 783.695 45.6158 786.5 44.5614" stroke="black"/>
<path id="T" d="M816.676 5C815.79 10.1877 813.982 13.0227 809.176 18C818.35 8.6544 824.007 6.59326 834.676 6.5H843.676L821.676 35.5C817.29 40.3258 819.251 40.8409 809.176 46C799.102 51.1591 801.176 40 801.176 40C801.614 37.7212 803.987 35.9295 809.176 32.5" stroke="black"/>
<path id="Y" d="M847.023 24.7009C836.474 29.3672 833.612 29.6492 841.523 20.2009C850.174 13.1629 855.297 10.0302 865.023 6.2009C869.743 5.47141 869.976 6.71147 868.523 10.2009L841.523 36.2009C837.001 47.278 839.016 48.7537 850.023 43.7009C866.59 30.9796 875.504 23.2105 891.023 8.7009L841.523 65.7009C839.374 66.3927 838.5 66.4707 839.523 64.2009C842.695 61.1631 845.153 60.2533 850.023 59.2009" stroke="black"/>
<path id="U" d="M897.753 14.8017C902.606 10.5463 905.589 8.74314 911.253 6.30173C915.965 5.41787 915.899 6.49297 914.253 9.30173C900.763 19.9826 893.905 26.5508 884.753 40.8017C882.808 47.0774 884.514 47.78 891.253 45.3017C910.062 32.7766 920.566 24.029 939.253 6.30173C923.025 21.0351 916.295 28.9207 908.253 42.3017C905.813 47.1677 907.006 47.6941 911.253 46.8017" stroke="black"/>
<path id="I" d="M955.725 26.3274C945.252 29.2802 939.596 30.1061 930.225 28.8274C926.928 27.1292 926.436 25.4317 930.225 19.8274C939.344 10.1727 945.884 6.29761 960.225 2.32735C966.802 1.13959 966.666 3.23184 965.225 7.82735C965.288 9.7595 955.949 19.2559 930.225 44.3274C926.778 46.0858 924.867 47.0511 926.725 43.3274L932.225 37.3274" stroke="black"/>
<path id="O" d="M983 4C964.607 16.7425 959.339 25.106 958 42C959.415 46.0714 962.193 46.2231 969 44.5C985.986 32.8028 999.314 17.8983 997.5 8C995.497 0.895679 992 1.26622 983 7C974.342 14.111 971.828 17.937 971 24.5C971.613 26.4895 972.505 26.4405 974.5 25.5C980.995 21.0842 984.708 16.0794 991.5 1" stroke="black"/>
<path id="P" d="M1030.01 3L996.006 45.5C996.006 45.5 994.506 46.5 994.006 44.5C993.506 42.5 1025.35 7.48124 1031.01 4C1036.66 0.518759 1046.16 8.16061 1035.01 20.5C1025.51 25.8078 1017.98 26.3033 1003.51 26" stroke="black"/>
<path id="C" d="M1079.67 7.58797C1070.87 9.40443 1066.52 12.7447 1059.67 22.088C1057.57 26.1302 1059.15 26.1142 1063.17 25.088C1067.88 23.6386 1075.17 12.0873 1075.67 9.08784C1076.17 6.08836 1077.08 4.83556 1071.17 3.08797C1065.26 1.34038 1027.13 26.0767 1030.17 37.588C1033.22 49.0992 1040.54 46.4023 1042.67 46.0886C1044.8 45.775 1049.8 44.5032 1055.67 37.588" stroke="black"/>
<path id="V" d="M1081.75 21.7104C1078.68 25.2097 1077.09 26.6905 1074.74 27.6977C1072.35 28.6746 1071.7 28.1231 1072.12 24.7041C1072.72 22.1523 1087.88 8.7376 1094.01 4.74628C1100.14 0.754964 1097.51 7.73995 1097.51 7.73995C1086.27 20.17 1076.06 36.18 1074.74 40.6703C1073.43 45.1606 1075.77 48.6765 1083.06 46.1587C1094.87 40.1685 1111.52 16.2215 1115.02 7.73995C1118.52 -0.741644 1111.52 4.74628 1111.52 4.74628C1106.59 8.1842 1104.26 11.8249 1100.57 20.2136" stroke="black"/>
<path id="w" d="M1094 47.2667C1097.66 46.3054 1099.54 45.3551 1102.5 42.7667C1108.92 37.4491 1112.4 34.8977 1118.5 30.7667C1113.58 36.2098 1111.3 38.765 1109.5 43C1108.67 44.5424 1108.64 45.2844 1109 45.7667C1109.54 46.6455 1110.18 46.7611 1111.5 46.7667C1115.34 44.7344 1116.73 42.6336 1119.5 39.2667C1121.36 37.0563 1122.56 35.8562 1125 33.7667C1125.42 33.3476 1125.64 33.123 1126 32.7667C1125.72 32.3814 1125.54 32.2145 1125 32.5L1119.5 39C1118.27 41.8124 1117.58 42.5607 1117.5 44L1118 45.7667C1118 47.2667 1121 47.2667 1121 47.2667C1122.75 46.9884 1126.4 44.236 1129.21 40.1731C1129.87 39.4014 1130.42 38.5581 1131 37.7667C1133.99 33.705 1134.96 31.8286 1135 31.2667C1135.23 30.0925 1135.17 29.6755 1134 30.2667C1132.34 31.0321 1131.59 31.5909 1130.5 32.7667C1128.79 34.7042 1128.33 35.8015 1128 37.7667C1128.29 40.0887 1129.73 40.2222 1132.5 40.2667C1134.45 39.7959 1135.36 39.3827 1136.5 38.2667" stroke="black"/>
<path id="e" d="M1002.6 49.024C1004.9 48.4716 1006.6 47.7292 1009.27 46.9028C1013.15 45.6991 1017.71 44.3331 1020.82 41.894C1023.93 39.4549 1024.13 37.9366 1026.6 34.7059C1027.22 33.6701 1027.34 33.0901 1026.6 32.0543C1026.28 31.963 1025.99 31.8963 1025.71 31.8575C1024.54 31.6937 1023.62 32.0288 1022.16 33.1149C1020.61 34.4315 1019.43 35.5837 1018.42 36.8131C1017.02 38.5266 1015.94 40.3901 1014.66 43.0575C1013.97 44.7645 1013.71 45.312 1013.71 46.9028C1013.71 48.4937 1014.16 49.8485 1015.04 49.8485C1016.28 49.8485 1016.38 49.8485 1018.16 49.8485C1018.6 49.8485 1019.49 49.8485 1020.38 49.8485C1020.38 49.8485 1022.16 49.8485 1028.38 49.024" stroke="black"/>
<path id="q" d="M1154 46.782C1159.1 44.7449 1162.06 43.0179 1167.5 38.782C1174.02 33.5055 1180.5 28.782 1182.5 30.282C1183.97 31.4429 1184.24 32.1005 1184 33.2821C1184.31 31.9545 1183.28 31.0799 1182 30.2821C1176.25 31.9613 1174.26 33.7063 1169.5 38.782C1167.18 41.0488 1166.62 42.2269 1166 44.282C1165.92 46.374 1166.89 46.4799 1169 46.282C1175.77 42.2479 1179.06 39.2824 1183.5 34.282C1184.83 32.782 1184.11 34.282 1184.5 34.282C1174.92 44.7035 1163 61.782 1162.5 62.782C1162 63.782 1162.5 64.782 1162.5 64.782C1163.26 65.4069 1163.85 65.2802 1165 64.782C1172.05 59.0287 1174.91 55.4503 1176 47.782V46.782H1185.5" stroke="black"/>
<path id="r" d="M1183 47.0801C1186.62 45.9067 1188.59 44.8026 1192 42.0801C1195.85 39.1674 1197.84 37.4345 1201 34.0801L1201.5 33.5801M1201.5 33.5801C1200.82 33.4197 1201 32.0801 1201 32.0801C1201.83 30.965 1202.52 30.4343 1204 29.5801C1205.36 28.545 1205.3 29.0084 1205 30.0801C1204.39 30.8655 1203.48 31.7272 1202.12 33C1201.92 33.1844 1201.72 33.3775 1201.5 33.5801ZM1201.5 33.5801C1203.08 33.1356 1203.95 32.7048 1205.5 31.5801C1206.14 31.2849 1206.94 30.8837 1207.66 30.7711C1208.95 30.5711 1210.02 30.8763 1209.52 32.0801C1209.32 32.5815 1208.84 33.2387 1208 34.0801C1204 38.0802 1203.01 40.2749 1199.5 44.1801C1198.24 45.5802 1198.14 46.3965 1199.5 47.0801C1200.25 47.3501 1200.68 47.4374 1201.5 47.4801C1204.22 47.3897 1204.62 47.4488 1207 46.5" stroke="black"/>
<g id="letter_t">
<path id="t" d="M1207 46.5C1207 46.5 1208.34 46.3826 1211 44.5633C1215.78 41.3817 1218.03 38.7688 1222.5 34.5C1225.53 31.3758 1229.64 29.4379 1232 27L1240 19.5634C1240.86 18.6781 1240.04 17.7463 1239.04 18.0633C1236.93 18.7276 1233.98 21.9051 1229.5 26.5C1224.29 32.3716 1225.5 31.5634 1221 36.5634C1217.74 40.3715 1215.38 42.6908 1216.5 45.0634C1217.02 47.2077 1218.5 47.6028 1221.5 48.0633C1223.77 47.9402 1226.1 47.3199 1231.5 45.5633L1221.5 27H1241" stroke="black"/>
<path id="Vector 17" d="M1225.5 32.5L1224 34L1230.5 45.5L1232 45L1225.5 32.5Z" fill="#D9D9D9"/>
<path id="Vector 18" d="M1222.5 27.5H1221L1223.5 33L1224.5 31.5L1222.5 27.5Z" fill="#D9D9D9"/>
</g>
<path id="u" d="M1228 47C1233.34 44.5016 1236.29 42.6233 1241.5 38.5L1250.5 31L1241.5 43C1239.66 45.2961 1241 46 1241.5 46.5C1242 47 1244.5 46.5 1246.5 45C1248.5 43.5 1260 31 1260 31L1250.5 43C1248.36 46.4532 1249.17 47.2421 1253.5 47" stroke="black"/>
<path id="y" d="M1253 47L1258 45L1263 41.5L1276.5 30.5C1272.78 35.8156 1270.37 38.2441 1267.5 42.5C1266.62 44.6052 1266.83 45.1971 1267.5 46C1268.04 46.4492 1268.68 46.5014 1270 46.5C1275.1 44.4045 1280.37 37.8496 1288.5 29L1274 47.5L1262.5 61.5C1260.27 64.2576 1259.08 65.5706 1257.5 66C1257.5 66 1255.5 67 1255.5 65.5C1255.5 64 1257.1 58.4409 1263 53.5C1271.72 47.7385 1275.75 46.848 1282.5 46.4037" stroke="black"/>
<g id="letter_i">
<path id="i" d="M1278 47.1168C1283.83 45.5231 1291.17 38.6394 1302 29.5001C1296.63 36.2181 1294 41.1168 1292 44.1168C1290 47.1168 1291.66 46.9813 1294.5 47.1168C1301.28 38.1546 1307.5 22.6168 1307.5 22.6168C1307.5 22.6168 1308.5 22.0001 1308.5 21.5C1308.5 20.9998 1308 21 1308 21C1308 21 1307 21 1307 22" stroke="black"/>
<path id="Vector 19" d="M1307 22.4999L1294 46.4999L1296 46.9999C1301.71 38.5741 1304.84 33.7896 1308.5 23.4999L1307 22.4999Z" fill="#D9D9D9"/>
</g>
<path id="o" d="M1294 47.0625C1298.05 45.4844 1300.25 44.1985 1304 41.0625C1308.98 36.8612 1311.73 34.8983 1316.5 32.5625C1310.39 35.7777 1308.67 38.3477 1307 43.5625C1306.62 46.5939 1307.63 46.9756 1310 47.0625C1316.74 43.1905 1319.59 40.2243 1322.5 33.0625C1321.99 30.9031 1321.16 30.5047 1318.5 31.5625C1315.91 33.9012 1315.46 35.2148 1315.5 37.5625C1315.79 39.2002 1317.45 39.4929 1321.5 39.5625" stroke="black"/>
<path id="p" d="M1313.5 47.5C1318.28 45.7151 1320.79 44.1515 1325 40.5C1330.69 35.345 1333.96 32.7611 1340 29C1329.44 42.7137 1323.26 49.8386 1312 62C1317.37 54.2582 1316.91 52.1321 1337 35C1341.75 31.7004 1343.56 31.069 1345 32.5C1345.82 37.1719 1343.72 40.0436 1336.5 45.5C1334.01 47.1424 1332.67 47.541 1330.5 46.5C1329.68 45.6237 1329.46 44.9458 1330 43C1331.38 41.048 1331.67 41.5282 1332 43C1333.16 48.0105 1335.3 48.075 1339.5 47.5" stroke="black"/>
<path id="a" d="M1340 46.9729C1346.26 44.9583 1350.92 41.0256 1359.5 33.9729C1364.87 30.6424 1366.82 30.3354 1368.5 32.4729C1366.96 30.0257 1365.73 30.9334 1362 32.9727C1356.92 36.3055 1354.29 37.9693 1352 42.4729C1351.17 47.2423 1353.02 46.7591 1357 44.9729C1365.34 38.6237 1368.5 35.9431 1371 32.9729C1371.11 31.951 1370.8 31.9177 1369.5 32.9729C1364.94 38.4493 1363.22 41.1179 1361 45.4729C1360.44 47.1117 1361.15 47.3325 1363.5 46.9729" stroke="black"/>
<path id="s" d="M1363 47.5L1376 39L1387 30C1385.56 37.7162 1383.94 40.9903 1380 45.5C1377.16 48.2887 1375.62 48.2123 1373 44.5C1373.19 41.1857 1373.7 40.5274 1375.5 42C1376.68 43.5913 1376.99 44.4739 1377 46C1377.29 47.0502 1378.08 47.4097 1381 47.5" stroke="black"/>
<path id="d" d="M1380 47.5356C1383.98 47.0717 1388.02 44.0646 1397 36.0356C1403.27 31.027 1405.91 29.9289 1407.5 34.0356C1406.06 31.8558 1406.07 31.6253 1401.5 33.5357C1396.93 35.446 1392.73 42.4745 1392 44.0357C1391.27 45.5968 1392.3 47.4339 1395 46.5357C1409.79 34.0574 1417.22 26.5393 1429.5 12.5357C1430.2 10.8374 1429.87 10.616 1428 11.5357C1413.58 25.3135 1409.45 31.85 1402 43.5357C1400.13 47.3064 1401.3 47.5796 1404 47.5357" stroke="black"/>
<path id="f" d="M1404 47.5341C1416.08 39.9778 1422.38 34.5521 1433.5 24.5341L1446.5 12.0341C1447.21 9.79639 1446.98 9.31812 1444.5 11.0341C1424.13 33.8638 1413.53 47.0666 1404.5 62.5341C1404.07 66.5528 1405.43 66.8689 1409 66.0341C1418.98 55.5979 1424.52 48.1378 1424.5 43.0341C1424.61 39.637 1422 40.5341 1420 42.5341C1419 44.5341 1419.06 47.3539 1423 47.5341L1427.5 47.0341" stroke="black"/>
<path id="g" d="M1426.88 46.4927C1434.07 42.934 1437.95 40.0963 1444.88 34.9927C1453.24 28.8842 1455.45 28.6732 1455.38 33.4927C1455.66 28.7978 1453.97 28.8739 1447.88 33.4927C1439.86 39.0754 1438.5 41.2169 1439.38 43.9927C1439.75 46.3199 1441 45.9311 1443.38 44.9927L1458.38 31.9927C1436.96 57.0736 1429.29 65.307 1426.88 64.9927C1423.36 65.6358 1422.36 65.1747 1423.38 61.9927C1430.33 51.6268 1436.63 48.875 1449.88 46.4927" stroke="black"/>
<path id="h" d="M1447 46.9172C1454.44 45.1476 1464.96 35.4423 1489 10.9172C1490.16 9.5809 1490.28 7.93835 1488 9.91716C1485.72 11.896 1459 45.9172 1459 45.9172C1473.11 33.9736 1479.36 29.1677 1480.5 31.9172C1481.21 32.2984 1478.12 35.7663 1470.5 43.9172C1468.81 46.2855 1470.23 46.553 1473 46.9172" stroke="black"/>
<g id="letter_j">
<path id="Vector 21" d="M1472.59 47.3158C1475.07 47.9728 1483.14 41.6462 1496.09 31.8158C1478.66 53.9206 1471.08 63.2414 1468.59 64.3158C1465.62 66.6214 1464.69 66.5102 1465.09 62.3158C1471.58 52.0195 1476.55 48.628 1488.09 47.3158C1496.68 38.8783 1501.09 34.2585 1504.09 24.3158C1504.09 24.3158 1505.68 22.6316 1504.59 21.8158C1503.5 21.0001 1503.4 21 1502.4 21.8158C1502.52 23.4051 1503.5 22.749 1504 22" stroke="black"/>
<path id="Vector 22" d="M1487 47H1490C1499.88 38.4202 1503.66 30.8261 1505.5 21L1503.5 23.5C1498.23 32.9123 1494.11 39.1325 1487 47Z" fill="#D9D9D9"/>
</g>
<path id="k" d="M1487 47.6985C1491.91 46.8628 1503.47 36.5289 1528 13.6985C1529.7 10.0071 1529.01 10.1951 1525.5 13.6985L1498.5 46.6985C1511.28 33.0872 1514.11 32.1197 1518 32.1985C1521.39 34.4812 1519.28 36.1829 1506 40.1985C1508.23 46.7372 1509.55 47.9484 1512 47.6985" stroke="black"/>
<path id="l" d="M1512 48.0286C1530.84 39.1874 1540.41 32.2582 1555.5 16.0286C1557.03 12.2826 1557.54 10.5122 1552 13.5286C1535.81 30.0081 1530.41 36.8031 1527.5 44.5286C1526.87 47.2349 1527.41 47.9042 1529.5 48.0286" stroke="black"/>
<path id="z" d="M1530.18 47.8171C1536.32 45.6822 1542.67 40.3546 1553.68 31.3171C1555.89 30.125 1556.62 32.3308 1555.68 37.3171C1553.55 41.3432 1550.39 43.0557 1543.68 45.8171C1541.81 45.7133 1541.53 45.5074 1542.68 44.8171C1547.72 42.6892 1549.13 43.1787 1550.18 45.8171C1549.52 51.5994 1541.05 61.7654 1532.68 64.8171C1529.57 65.7771 1528.55 65.5152 1529.18 62.3171C1531.84 55.6612 1536.08 52.1926 1552.18 46.8171" stroke="black"/>
<g id="letter_x">
<path id="x" d="M1551 47C1560.73 42.5877 1565.81 38.0019 1575 30.5L1571 45C1570.38 47.1529 1571.43 47.2879 1574 47L1585.5 30.5L1562 47" stroke="black"/>
<path id="Vector 23" d="M1575 46.5H1573.5L1582.5 33.5L1587.5 30L1575 46.5Z" fill="#D9D9D9"/>
</g>
<path id="c" d="M1573 47.3159C1573 47.3159 1585.71 39.7315 1598 30.8159C1601.88 29.5773 1602.62 30.1398 1602 32.8159C1598.31 39.3627 1597.51 38.8873 1596 38.3159C1595.31 37.0688 1596.88 35.5362 1602 31.8159C1602.15 30.2424 1601.61 29.7047 1600.25 30.1515C1595.26 31.951 1590.92 34.9436 1588.5 38.3159C1585.45 45.9427 1586.97 47.2126 1592 47.3159" stroke="black"/>
<path id="v" d="M1592 47.1659C1597.63 44.7302 1603.1 40.2814 1613 32.1659C1615.16 30.8073 1615.3 31.4129 1615 33.1659C1609.35 38.7271 1607.9 40.7174 1607 43.1659C1606.21 46.8218 1607.28 47.281 1612 45.1659C1615.3 42.9992 1617.43 41.0643 1623 33.1659C1623.47 31.1398 1623.73 30.0091 1620.5 32.1659C1617.94 34.735 1616.94 36.2472 1616.5 39.1659C1616.98 40.1676 1618.25 40.0447 1621.5 39.1659" stroke="black"/>
<path id="b" d="M1612 46.9136C1617.98 45.7336 1623.23 41.3996 1634 30.9136C1644.67 24.3756 1650.03 21.2884 1656.5 12.9136C1657.7 9.94034 1657.31 9.18527 1653 10.9136C1638.22 23.6965 1633.84 31.3019 1627 43.9136C1626.87 45.5635 1627.58 45.9707 1630 45.9136C1635.1 43.8358 1637.54 41.0067 1641.5 34.4136C1641.66 30.2246 1640.56 29.5377 1636 31.9136C1633.3 35.162 1634.42 36.6053 1637 38.9136" stroke="black"/>
<path id="m" d="M1632 46.5C1638.92 44.3028 1644.77 39.0155 1655 30C1655.92 30.2158 1655.5 31.5 1655.5 31.5L1645.5 45.5C1644.2 46.5122 1643.65 46.7648 1644 45C1649.82 39.2561 1653.84 36.1849 1662.5 31C1666.34 30.8057 1662.72 35.7157 1654.5 46C1653.32 46.7089 1652.82 46.824 1652.5 46C1663.61 35.5414 1668.71 31.1853 1672.5 30.5C1674.22 30.0597 1674.43 30.6183 1674 32.5L1664 43.5C1662.73 45.5795 1663.49 46.1536 1666.5 46.5" stroke="black"/>
<path id="n" d="M1665 46.5C1668.93 45.8225 1676.16 39.6993 1688 30L1678 45.5C1676.79 45.9294 1676.31 45.979 1676.5 45C1689.85 34.2336 1696.5 30.5 1697.5 31C1698.53 30.7524 1699.38 32.2161 1698.5 33.5L1688.5 43.5C1686.87 45.3756 1687.95 45.8875 1691 46.5" stroke="black"/>
</g>
</svg>
