<svg width="1869" height="71" viewBox="0 0 1869 71" fill="none" xmlns="http://www.w3.org/2000/svg">
<g id="alphabet">
<path id="b" d="M1779 51.9136C1784.98 50.7336 1790.23 46.3996 1801 35.9136C1811.67 29.3756 1817.03 26.2884 1823.5 17.9136C1824.7 14.9403 1824.31 14.1853 1820 15.9136C1805.22 28.6965 1800.84 36.3019 1794 48.9136C1793.87 50.5635 1794.58 50.9707 1797 50.9136C1802.1 48.8358 1804.54 46.0067 1808.5 39.4136C1808.66 35.2246 1807.56 34.5377 1803 36.9136C1800.3 40.162 1801.42 41.6053 1804 43.9136" stroke="black"/>
<path id="c" d="M1742 52.3159C1742 52.3159 1754.71 44.7315 1767 35.8159C1770.88 34.5773 1771.62 35.1398 1771 37.8159C1767.31 44.3627 1766.51 43.8873 1765 43.3159C1764.31 42.0688 1765.88 40.5362 1771 36.8159C1771.15 35.2424 1770.61 34.7047 1769.25 35.1515C1764.26 36.951 1759.92 39.9436 1757.5 43.3159C1754.45 50.9427 1755.97 52.2126 1761 52.3159" stroke="black"/>
<path id="f" d="M1574 51.5341C1586.08 43.9778 1592.38 38.5521 1603.5 28.5341L1616.5 16.0341C1617.21 13.7964 1616.98 13.3181 1614.5 15.0341C1594.13 37.8638 1583.53 51.0666 1574.5 66.5341C1574.07 70.5528 1575.43 70.8689 1579 70.0341C1588.98 59.5979 1594.52 52.1378 1594.5 47.0341C1594.61 43.637 1592 44.5341 1590 46.5341C1589 48.5341 1589.06 51.3539 1593 51.5341L1597.5 51.0341" stroke="black"/>
<path id="d" d="M1550 51.5356C1553.98 51.0717 1558.02 48.0646 1567 40.0356C1573.27 35.027 1575.91 33.9289 1577.5 38.0356C1576.06 35.8558 1576.07 35.6253 1571.5 37.5357C1566.93 39.446 1562.73 46.4745 1562 48.0357C1561.27 49.5968 1562.3 51.4339 1565 50.5357C1579.79 38.0574 1587.22 30.5393 1599.5 16.5357C1600.2 14.8374 1599.87 14.616 1598 15.5357C1583.58 29.3135 1579.45 35.85 1572 47.5357C1570.13 51.3064 1571.3 51.5796 1574 51.5357" stroke="black"/>
<path id="r" d="M1357 48.0801C1360.62 46.9067 1362.59 45.8026 1366 43.0801C1369.85 40.1674 1371.84 38.4345 1375 35.0801L1375.5 34.5801M1375.5 34.5801C1374.82 34.4197 1375 33.0801 1375 33.0801C1375.83 31.965 1376.52 31.4343 1378 30.5801C1379.36 29.545 1379.3 30.0084 1379 31.0801C1378.39 31.8655 1377.48 32.7272 1376.12 34C1375.92 34.1844 1375.72 34.3775 1375.5 34.5801ZM1375.5 34.5801C1377.08 34.1356 1377.95 33.7048 1379.5 32.5801C1380.14 32.2849 1380.94 31.8837 1381.66 31.7711C1382.95 31.5711 1384.02 31.8763 1383.52 33.0801C1383.32 33.5815 1382.84 34.2387 1382 35.0801C1378 39.0802 1377.01 41.2749 1373.5 45.1801C1372.24 46.5802 1372.14 47.3965 1373.5 48.0801C1374.25 48.3501 1374.68 48.4374 1375.5 48.4801C1378.22 48.3897 1378.62 48.4488 1381 47.5" stroke="black"/>
<path id="e" d="M1303 47.2226C1305.59 46.7017 1307.5 46.0018 1310.5 45.2226C1314.87 44.0876 1320 42.7997 1323.5 40.5C1327 38.2003 1327.22 36.7688 1330 33.7226C1330.7 32.746 1330.84 32.1992 1330 31.2226C1329.64 31.1365 1329.31 31.0736 1329 31.037C1327.68 30.8826 1326.65 31.1986 1325 32.2226C1323.26 33.4639 1321.94 34.5503 1320.8 35.7094C1319.22 37.3251 1318 39.082 1316.57 41.597C1315.79 43.2065 1315.5 43.7227 1315.5 45.2226C1315.5 46.7225 1316 48 1317 48C1318.39 48 1318.5 48 1320.5 48C1321 48 1322 48 1323 48C1323 48 1325 48 1332 47.2226" stroke="black"/>
<path id="q" d="M1330 47.782C1335.1 45.7449 1338.06 44.0179 1343.5 39.782C1350.02 34.5055 1356.5 29.782 1358.5 31.282C1359.97 32.4429 1360.24 33.1005 1360 34.2821C1360.31 32.9545 1359.28 32.0799 1358 31.2821C1352.25 32.9613 1350.26 34.7063 1345.5 39.782C1343.18 42.0488 1342.62 43.2269 1342 45.282C1341.92 47.374 1342.89 47.4799 1345 47.282C1351.77 43.2479 1355.06 40.2824 1359.5 35.282C1360.83 33.782 1360.11 35.282 1360.5 35.282C1350.92 45.7035 1339 62.782 1338.5 63.782C1338 64.782 1338.5 65.782 1338.5 65.782C1339.26 66.4069 1339.85 66.2802 1341 65.782C1348.05 60.0287 1350.91 56.4503 1352 48.782V47.782H1361.5" stroke="black"/>
<path id="w" d="M1269 48.2667C1272.66 47.3054 1274.54 46.3551 1277.5 43.7667C1283.92 38.4491 1287.4 35.8977 1293.5 31.7667C1288.58 37.2098 1286.3 39.765 1284.5 44C1283.67 45.5424 1283.64 46.2844 1284 46.7667C1284.54 47.6455 1285.18 47.7611 1286.5 47.7667C1290.34 45.7344 1291.73 43.6336 1294.5 40.2667C1296.36 38.0563 1297.56 36.8562 1300 34.7667C1300.42 34.3476 1300.64 34.123 1301 33.7667C1300.72 33.3814 1300.54 33.2145 1300 33.5L1294.5 40C1293.27 42.8124 1292.58 43.5607 1292.5 45L1293 46.7667C1293 48.2667 1296 48.2667 1296 48.2667C1297.75 47.9884 1301.4 45.236 1304.21 41.1731C1304.87 40.4014 1305.42 39.5581 1306 38.7667C1308.99 34.705 1309.96 32.8286 1310 32.2667C1310.23 31.0925 1310.17 30.6755 1309 31.2667C1307.34 32.0321 1306.59 32.5909 1305.5 33.7667C1303.79 35.7042 1303.33 36.8015 1303 38.7667C1303.29 41.0887 1304.73 41.2222 1307.5 41.2667C1309.45 40.7959 1310.36 40.3827 1311.5 39.2667" stroke="black"/>
<path id="u" d="M1400 49C1405.34 46.5016 1408.29 44.6233 1413.5 40.5L1422.5 33L1413.5 45C1411.66 47.2961 1413 48 1413.5 48.5C1414 49 1416.5 48.5 1418.5 47C1420.5 45.5 1432 33 1432 33L1422.5 45C1420.36 48.4532 1421.17 49.2421 1425.5 49" stroke="black"/>
<path id="y" d="M1424 49L1429 47L1434 43.5L1447.5 32.5C1443.78 37.8156 1441.37 40.2441 1438.5 44.5C1437.62 46.6052 1437.83 47.1971 1438.5 48C1439.04 48.4492 1439.68 48.5014 1441 48.5C1446.1 46.4045 1451.37 39.8496 1459.5 31L1445 49.5L1433.5 63.5C1431.27 66.2576 1430.08 67.5706 1428.5 68C1428.5 68 1426.5 69 1426.5 67.5C1426.5 66 1428.1 60.4409 1434 55.5C1442.72 49.7385 1446.75 48.848 1453.5 48.4037" stroke="black"/>
<path id="o" d="M1467 50.0625C1471.05 48.4844 1473.25 47.1985 1477 44.0625C1481.98 39.8612 1484.73 37.8983 1489.5 35.5625C1483.39 38.7777 1481.67 41.3477 1480 46.5625C1479.62 49.5939 1480.63 49.9756 1483 50.0625C1489.74 46.1905 1492.59 43.2243 1495.5 36.0625C1494.99 33.9031 1494.16 33.5047 1491.5 34.5625C1488.91 36.9012 1488.46 38.2148 1488.5 40.5625C1488.79 42.2002 1490.45 42.4929 1494.5 42.5625" stroke="black"/>
<path id="p" d="M1485.5 50.5C1490.28 48.7151 1492.79 47.1515 1497 43.5C1502.69 38.345 1505.96 35.7611 1512 32C1501.44 45.7137 1495.26 52.8386 1484 65C1489.37 57.2582 1488.91 55.1321 1509 38C1513.75 34.7004 1515.56 34.069 1517 35.5C1517.82 40.1719 1515.72 43.0436 1508.5 48.5C1506.01 50.1424 1504.67 50.541 1502.5 49.5C1501.68 48.6237 1501.46 47.9458 1502 46C1503.38 44.048 1503.67 44.5282 1504 46C1505.16 51.0105 1507.3 51.075 1511.5 50.5" stroke="black"/>
<path id="s" d="M1534 51.5L1547 43L1558 34C1556.56 41.7162 1554.94 44.9903 1551 49.5C1548.16 52.2887 1546.62 52.2123 1544 48.5C1544.19 45.1857 1544.7 44.5274 1546.5 46C1547.68 47.5913 1547.99 48.4739 1548 50C1548.29 51.0502 1549.08 51.4097 1552 51.5" stroke="black"/>
<path id="a" d="M1511 50.9729C1517.26 48.9583 1521.92 45.0256 1530.5 37.9729C1535.87 34.6424 1537.82 34.3354 1539.5 36.4729C1537.96 34.0257 1536.73 34.9334 1533 36.9727C1527.92 40.3055 1525.29 41.9693 1523 46.4729C1522.17 51.2423 1524.02 50.7591 1528 48.9729C1536.34 42.6237 1539.5 39.9431 1542 36.9729C1542.11 35.951 1541.8 35.9177 1540.5 36.9729C1535.94 42.4493 1534.22 45.1179 1532 49.4729C1531.44 51.1117 1532.15 51.3325 1534.5 50.9729" stroke="black"/>
<path id="g" d="M1596.88 50.4927C1604.07 46.934 1607.95 44.0963 1614.88 38.9927C1623.24 32.8842 1625.45 32.6732 1625.38 37.4927C1625.66 32.7978 1623.97 32.8739 1617.88 37.4927C1609.86 43.0754 1608.5 45.2169 1609.38 47.9927C1609.75 50.3199 1611 49.9311 1613.38 48.9927L1628.38 35.9927C1606.96 61.0736 1599.29 69.307 1596.88 68.9927C1593.36 69.6358 1592.36 69.1747 1593.38 65.9927C1600.33 55.6268 1606.63 52.875 1619.88 50.4927" stroke="black"/>
<g id="letter_t">
<path id="t" d="M1379 48.5C1379 48.5 1380.34 48.3826 1383 46.5633C1387.78 43.3817 1390.03 40.7688 1394.5 36.5C1397.53 33.3758 1401.64 31.4379 1404 29L1412 21.5634C1412.86 20.6781 1412.04 19.7463 1411.04 20.0633C1408.93 20.7276 1405.98 23.9051 1401.5 28.5C1396.29 34.3716 1397.5 33.5634 1393 38.5634C1389.74 42.3715 1387.38 44.6908 1388.5 47.0634C1389.02 49.2077 1390.5 49.6028 1393.5 50.0633C1395.77 49.9402 1398.1 49.3199 1403.5 47.5633L1393.5 29H1413" stroke="black"/>
<path id="Vector 17" d="M1397.5 34.5L1396 36L1402.5 47.5L1404 47L1397.5 34.5Z" fill="#D9D9D9"/>
<path id="Vector 18" d="M1394.5 29.5H1393L1395 35L1397 33L1394.5 29.5Z" fill="#D9D9D9"/>
</g>
<path id="h" d="M1617 50.9172C1624.44 49.1476 1634.96 39.4423 1659 14.9172C1660.16 13.5809 1660.28 11.9384 1658 13.9172C1655.72 15.896 1629 49.9172 1629 49.9172C1643.11 37.9736 1649.36 33.1677 1650.5 35.9172C1651.21 36.2984 1648.12 39.7663 1640.5 47.9172C1638.81 50.2855 1640.23 50.553 1643 50.9172" stroke="black"/>
<path id="k" d="M1658 51.6985C1662.91 50.8628 1674.47 40.5289 1699 17.6985C1700.7 14.0071 1700.01 14.1951 1696.5 17.6985L1669.5 50.6985C1682.28 37.0872 1685.11 36.1197 1689 36.1985C1692.39 38.4812 1690.28 40.1829 1677 44.1985C1679.23 50.7372 1680.55 51.9484 1683 51.6985" stroke="black"/>
<g id="letter_j">
<path id="Vector 21" d="M1643.59 51.3158C1646.07 51.9728 1654.14 45.6462 1667.09 35.8158C1649.66 57.9206 1642.08 67.2414 1639.59 68.3158C1636.62 70.6214 1635.69 70.5102 1636.09 66.3158C1642.58 56.0195 1647.55 52.628 1659.09 51.3158C1667.68 42.8783 1672.09 38.2585 1675.09 28.3158C1675.09 28.3158 1676.68 26.6316 1675.59 25.8158C1674.5 25.0001 1674.4 25 1673.4 25.8158C1673.52 27.4051 1674.5 26.749 1675 26" stroke="black"/>
<path id="Vector 22" d="M1658 51H1661C1670.88 42.4202 1674.66 34.8261 1676.5 25L1674.5 27.5C1669.23 36.9123 1665.11 43.1325 1658 51Z" fill="#D9D9D9"/>
</g>
<g id="letter_i">
<path id="i" d="M1451 49.1168C1456.83 47.5231 1464.17 40.6394 1475 31.5001C1469.63 38.2181 1467 43.1168 1465 46.1168C1463 49.1168 1464.66 48.9813 1467.5 49.1168C1474.28 40.1546 1480.5 24.6168 1480.5 24.6168C1480.5 24.6168 1481.5 24.0001 1481.5 23.5C1481.5 22.9998 1481 23 1481 23C1481 23 1480 23 1480 24" stroke="black"/>
<path id="Vector 19" d="M1480 24.4999L1467 48.4999L1469 48.9999C1474.71 40.5741 1477.84 35.7896 1481.5 25.4999L1480 24.4999Z" fill="#D9D9D9"/>
</g>
<path id="l" d="M1682 52.0286C1700.84 43.1874 1710.41 36.2582 1725.5 20.0286C1727.03 16.2826 1727.54 14.5122 1722 17.5286C1705.81 34.0081 1700.41 40.8031 1697.5 48.5286C1696.87 51.2349 1697.41 51.9042 1699.5 52.0286" stroke="black"/>
<path id="z" d="M1699.18 51.8171C1705.32 49.6822 1711.67 44.3546 1722.68 35.3171C1724.89 34.125 1725.62 36.3308 1724.68 41.3171C1722.55 45.3432 1719.39 47.0557 1712.68 49.8171C1710.81 49.7133 1710.53 49.5074 1711.68 48.8171C1716.72 46.6892 1718.13 47.1787 1719.18 49.8171C1718.52 55.5994 1710.05 65.7654 1701.68 68.8171C1698.57 69.7771 1697.55 69.5152 1698.18 66.3171C1700.84 59.6612 1705.08 56.1926 1721.18 50.8171" stroke="black"/>
<g id="letter_x">
<path id="x" d="M1719 52C1728.73 47.5877 1733.81 43.0019 1743 35.5L1739 50C1738.38 52.1529 1739.43 52.2879 1742 52L1753.5 35.5L1730 52" stroke="black"/>
<path id="Vector 23" d="M1743 51.5H1741.5L1750.5 38.5L1755.5 35L1743 51.5Z" fill="#D9D9D9"/>
</g>
<path id="v" d="M1761 52.1659C1766.63 49.7302 1772.1 45.2814 1782 37.1659C1784.16 35.8073 1784.3 36.4129 1784 38.1659C1778.35 43.7271 1776.9 45.7174 1776 48.1659C1775.21 51.8218 1776.28 52.281 1781 50.1659C1784.3 47.9992 1786.43 46.0643 1792 38.1659C1792.47 36.1398 1792.73 35.0091 1789.5 37.1659C1786.94 39.735 1785.94 41.2472 1785.5 44.1659C1785.98 45.1676 1787.25 45.0447 1790.5 44.1659" stroke="black"/>
<path id="n" d="M1834 51.5C1837.93 50.8225 1845.16 44.6993 1857 35L1847 50.5C1845.79 50.9294 1845.31 50.979 1845.5 50C1858.85 39.2336 1865.5 35.5 1866.5 36C1867.53 35.7524 1868.38 37.2161 1867.5 38.5L1857.5 48.5C1855.87 50.3756 1856.95 50.8875 1860 51.5" stroke="black"/>
<path id="m" d="M1800 51.5C1806.92 49.3028 1812.77 44.0155 1823 35C1823.92 35.2158 1823.5 36.5 1823.5 36.5L1813.5 50.5C1812.2 51.5122 1811.65 51.7648 1812 50C1817.82 44.2561 1821.84 41.1849 1830.5 36C1834.34 35.8057 1830.72 40.7157 1822.5 51C1821.32 51.7089 1820.82 51.824 1820.5 51C1831.61 40.5414 1836.71 36.1853 1840.5 35.5C1842.22 35.0597 1842.43 35.6183 1842 37.5L1832 48.5C1830.73 50.5795 1831.49 51.1536 1834.5 51.5" stroke="black"/>
<path id="Q" d="M699 39.6019C705.35 24.7557 711.015 17.1232 730.5 6.60195C737.912 4.56285 738.578 7.78021 738.5 15.1019C734.278 28.5858 727.606 36.03 708 49.1019C703.386 49.9281 701.178 49.9419 700.5 46.1019C704.764 39.2689 711.968 40.404 724.5 42.1019" stroke="black"/>
<path id="W" d="M749 17.1302C754.587 11.2948 759.042 8.58805 769 4.63018C773.051 3.79753 772.832 4.79644 771.5 7.13018C753.116 23.3595 746.775 31.0418 740 43.1302C740.359 45.6226 741.459 46.2591 745.5 45.6302C752.718 42.5813 765.421 30.2256 786.5 10.1302C770.885 26.3839 766.335 33.6611 766 43.1302C766.218 46.1603 768.55 46.185 773.5 45.6302C781.255 42.2026 789.3 32.227 807 7.13018C807.71 3.83011 806.836 3.40408 803.5 4.63018C798.675 7.72579 796.402 9.82185 793 14.1302" stroke="black"/>
<path id="E" d="M846.682 14.5251C850.88 14.5122 853.3 13.4438 857.682 10.5251C859.012 8.51925 858.391 6.83535 854.182 5.0251C842.319 4.78272 836.656 6.24742 828.182 11.5251C823.107 14.8763 823.746 16.6003 828.182 19.5251C833.441 21.3666 836.703 21.8795 844.682 22.0159C826.357 23.5241 812.719 27.3013 808.182 34.0159C805.301 42.6185 807.457 45.361 817.182 47.0251C825.037 47.0183 829.136 44.8285 836.182 39.0251" stroke="black"/>
<path id="R" d="M854 46.0614L888 6.06139C906.188 5.44617 906.931 9.38467 898 21.0614C891.556 25.7209 886.811 27.1185 875.5 26.5614C879.405 32.9056 880.084 35.936 880.5 41.0614C881.023 46.4863 882.695 45.6158 885.5 44.5614" stroke="black"/>
<path id="T" d="M927.676 6C926.79 11.1877 924.982 14.0227 920.176 19C929.35 9.6544 935.007 7.59326 945.676 7.5H954.676L932.676 36.5C928.29 41.3258 930.251 41.8409 920.176 47C910.102 52.1591 912.176 41 912.176 41C912.614 38.7212 914.987 36.9295 920.176 33.5" stroke="black"/>
<path id="Y" d="M966.023 24.7009C955.474 29.3672 952.612 29.6492 960.523 20.2009C969.174 13.1629 974.297 10.0302 984.023 6.2009C988.743 5.47141 988.976 6.71147 987.523 10.2009L960.523 36.2009C956.001 47.278 958.016 48.7537 969.023 43.7009C985.59 30.9796 994.504 23.2105 1010.02 8.7009L960.523 65.7009C958.374 66.3927 957.5 66.4707 958.523 64.2009C961.695 61.1631 964.153 60.2533 969.023 59.2009" stroke="black"/>
<path id="U" d="M1021.75 12.8017C1026.61 8.54629 1029.59 6.74314 1035.25 4.30173C1039.96 3.41787 1039.9 4.49297 1038.25 7.30173C1024.76 17.9826 1017.91 24.5508 1008.75 38.8017C1006.81 45.0774 1008.51 45.78 1015.25 43.3017C1034.06 30.7766 1044.57 22.029 1063.25 4.30173C1047.03 19.0351 1040.29 26.9207 1032.25 40.3017C1029.81 45.1677 1031.01 45.6941 1035.25 44.8017" stroke="black"/>
<path id="Z" d="M139.529 14.5201C134.359 17.3338 131.507 18.8085 127.529 19.0201C123.248 19.0714 122.191 18.7073 125.529 16.5201C135.02 9.17041 141.429 6.80484 155.029 6.02014C159.546 5.75507 160.077 8.09866 160.029 13.5201C160.104 20.2287 152.582 25.8539 132.529 37.5201C128.536 39.6647 120.529 41.0201 120.529 41.0201C120.529 41.0201 117.529 41.0201 120.529 39.0201C123.529 37.0201 131.529 39.0201 131.529 39.0201C135.152 39.9274 131.038 44.7331 120.529 55.5201C115.313 59.6727 111.454 61.5702 103.029 64.0201C100.687 64.6076 99.8239 64.6506 100.029 61.02C100.255 57.02 118.529 46.02 118.529 46.02C125.083 42.5011 128.009 42.9906 133.029 44.52" stroke="black"/>
<path id="I" d="M1093.72 25.3274C1083.25 28.2802 1077.6 29.1061 1068.22 27.8274C1064.93 26.1292 1064.44 24.4317 1068.22 18.8274C1077.34 9.17267 1083.88 5.29761 1098.22 1.32735C1104.8 0.139585 1104.67 2.23184 1103.22 6.82735C1103.29 8.7595 1093.95 18.2559 1068.22 43.3274C1064.78 45.0858 1062.87 46.0511 1064.72 42.3274L1070.22 36.3274" stroke="black"/>
<path id="O" d="M1129 4C1110.61 16.7425 1105.34 25.106 1104 42C1105.42 46.0714 1108.19 46.2231 1115 44.5C1131.99 32.8028 1145.31 17.8983 1143.5 8C1141.5 0.895679 1138 1.26622 1129 7C1120.34 14.111 1117.83 17.937 1117 24.5C1117.61 26.4895 1118.51 26.4405 1120.5 25.5C1127 21.0842 1130.71 16.0794 1137.5 1" stroke="black"/>
<path id="P" d="M1182.01 3L1148.01 45.5C1148.01 45.5 1146.51 46.5 1146.01 44.5C1145.51 42.5 1177.35 7.48124 1183.01 4C1188.66 0.518759 1198.16 8.16061 1187.01 20.5C1177.51 25.8078 1169.98 26.3033 1155.51 26" stroke="black"/>
<path id="J" d="M345.264 23.676C337.263 31.1464 333.024 33.3064 325.764 34.676C317.485 35.9525 316.174 33.199 318.264 23.676C318.502 20.9978 328.812 10.7305 350.264 4.676C361.431 2.45667 359.647 5.93759 357.264 11.676C347.792 27.689 320.264 56.176 312.764 61.676C305.264 67.176 298.264 63.676 304.264 57.676C310.264 51.676 330.764 42.176 334.264 41.176C337.764 40.176 337.764 43.676 337.764 43.676" stroke="black"/>
<path id="A" d="M638 44.5C639.462 49.8677 641.134 49.8041 645 46.5C667.457 24.951 679.908 16.6599 702 5L668.5 49.5C675.776 41.4946 674.148 40.2237 674 37.5C672.851 33.2666 672.278 32.3763 666 29C659.602 28.1685 653.879 29.6111 651 32.5C647.138 38.577 654.598 42.6443 662.5 44.5C671.082 44.517 672.029 43.3854 683 41" stroke="black"/>
<path id="S" d="M612.9 34.756L635.713 10.2342C638.033 7.8626 636.825 5.13071 635.156 6.26476C633.487 7.39881 633.951 6.83175 634.6 21.5753C635.249 36.3188 635.713 38.5869 632.374 43.1234C629.036 47.6599 625.698 50.4952 617.352 49.9281C609.006 49.361 600.66 31.7823 614.014 25.5447C617.617 23.0456 627.367 28.38 620.69 35.7517" stroke="black"/>
<path id="D" d="M594.043 6L559.543 45.5C559.543 45.5 555.543 49 556.043 45.5C556.543 42 562.543 40 566.543 43C570.543 46 573.241 48.426 580.543 45.5C592.648 40.461 598.287 34.2768 606.043 16.5C607.337 11.8268 605.942 9.45905 597.043 9C584.874 9.45333 579.415 10.832 570.543 14" stroke="black"/>
<g id="letter_F">
<path id="F" d="M527 5.5L516 20C527.514 8.65758 535.526 7.58952 550.5 8C556.772 8.76468 563 9 567.5 8C572 7 570.817 4.18742 564.5 4C555.276 5.13454 528.267 43.8111 522.5 48C522.5 48 512.235 53.7668 512 46C512.205 42.8077 513.334 40.8632 518 37L519.5 30L546.5 28.5C547.689 28.5468 548.591 27.9271 550.5 26C552.449 23.6289 551.97 23.3276 548.5 24.5C546.375 25.3948 543.383 30.3028 539.5 35.5" stroke="black"/>
<path id="Vector 38" d="M521 32L519 29L516.5 36.5L519 37.5L521 32Z" fill="#D9D9D9"/>
</g>
<path id="G" d="M506.832 10.4464C499.896 13.8487 497.473 15.8298 495.332 19.4464C493.081 24.2135 495.075 24.404 500.332 23.4464C505.745 20.9151 508.157 18.0958 511.332 10.4464C512.859 5.38803 510.086 5.31471 502.832 6.94639C470.792 18.7975 467.3 27.3056 460.832 42.4464C459.509 48.3737 462.6 48.4866 470.332 46.9464C474.523 45.9126 481.576 41.3763 502.832 25.9464C487.73 43.0505 479.177 52.2986 463.332 66.4464C453.167 71.1171 451.063 70.1321 452.332 64.9464C456.885 56.6301 462.831 52.7423 478.332 46.9464C483.153 46.0614 484.51 46.6103 485.832 48.4464" stroke="black"/>
<g id="letter_H">
<path id="H" d="M367.5 4C366.613 9.1877 364.806 12.0227 360 17C369.174 7.6544 374.83 5.59326 385.5 5.5H394.5L372.5 34.5C367.465 40.419 366.676 42 360 45C353.324 48 352 39 352 39C352.438 36.7212 353.634 33.4295 358.824 30C363.147 26 369.824 23 376.824 26C382.824 30 388.824 42 388.824 43C388.824 44 388.324 45 386.824 45C385.324 45 385.5 42 385.5 42C388.299 35.1052 398.391 22.6176 408.824 8" stroke="black"/>
<path id="Vector 41" d="M376.5 23.0001C368.855 21.3213 364.981 22.9377 358.5 28.5001L361 31.0001L375 26.5001L376.5 23.0001Z" fill="#D9D9D9"/>
</g>
<g id="letter_K">
<path id="K" d="M223.729 4C222.843 9.1877 221.035 12.0227 216.229 17C225.403 7.6544 231.06 5.59326 241.729 5.5H250.729C250.729 5.5 233.116 29.6742 228.729 34.5C224.343 39.3258 220.553 45 216.229 45C211.906 45 209.615 41.2788 210.053 39C210.491 36.7212 211.04 34.9295 216.229 31.5L266.053 6.5H279.053C273.947 6.13753 269 9 269 9C266.229 10.3202 260.79 17.382 258 22C256.411 24.6304 253 27 250.729 28C248.459 29 237 29 236.553 26.5C236.106 24 236.621 23.8029 239.053 24.5C245.168 26.1291 246.592 28.3053 247.053 33.5C247.326 37.6249 245.338 39.9216 240.053 44C237.522 46.1389 239.851 46.2736 244.053 46.5" stroke="black"/>
<g id="Vector 43">
<path d="M240 18.5C239.376 19.8559 238.908 20.4766 238 21.5L217 32.5L215.5 30L240 18.5Z" fill="#D9D9D9"/>
<path d="M243.5 16.4999C241.77 18.5975 241.312 19.3841 241.5 20L270.5 7.49997L274.5 6C263.904 4.72388 256.485 7.81873 243.5 16.4999Z" fill="#D9D9D9"/>
<path d="M240 18.5C239.376 19.8559 238.908 20.4766 238 21.5L217 32.5L215.5 30L240 18.5Z" stroke="black"/>
<path d="M243.5 16.4999C241.77 18.5975 241.312 19.3841 241.5 20L270.5 7.49997L274.5 6C263.904 4.72388 256.485 7.81873 243.5 16.4999Z" stroke="black"/>
</g>
</g>
<path id="L" d="M210.32 9.18895C200.041 13.0512 195.577 16.8232 189.82 26.189C186.796 32.2067 188.973 31.8092 194.82 29.189C200.959 26.4325 203.536 21.87 206.82 9.18895C207.75 5.35502 206.38 4.92433 199.82 8.18895C180.843 22.0678 170.32 39.189 161.32 46.189C152.32 53.1889 147.32 47.689 147.32 46.189C147.32 44.6889 145.32 40.689 151.32 39.689C157.32 38.6889 160.32 39.189 164.82 41.189C169.32 43.1889 172.32 43.189 177.32 45.689C182.32 48.1889 185.82 45.689 185.82 45.689" stroke="black"/>
<g id="letter_X">
<path id="X" d="M278 15.1892C283.061 8.93507 286.5 6.18923 291 4.68919C295.5 3.18914 296.5 4.18909 295.5 7.18919C294.5 10.1893 282 41.1892 282 41.1892C280.514 44.2969 282 44.8649 287 44.6892L320.5 4.68919C294.934 18.7132 281.045 27.191 258 44.6892" stroke="black"/>
<path id="Vector 46" d="M289 44H286.5L315 9L323 6L289 44Z" fill="#D9D9D9"/>
</g>
<path id="C" d="M1239.67 10.588C1230.87 12.4044 1226.52 15.7447 1219.67 25.088C1217.57 29.1302 1219.15 29.1142 1223.17 28.088C1227.88 26.6386 1235.17 15.0873 1235.67 12.0878C1236.17 9.08836 1237.08 7.83556 1231.17 6.08797C1225.26 4.34038 1187.13 29.0767 1190.17 40.588C1193.22 52.0992 1200.54 49.4023 1202.67 49.0886C1204.8 48.775 1209.8 47.5032 1215.67 40.588" stroke="black"/>
<path id="V" d="M1248.75 21.7104C1245.68 25.2097 1244.09 26.6905 1241.74 27.6977C1239.35 28.6746 1238.7 28.1231 1239.12 24.7041C1239.72 22.1523 1254.88 8.7376 1261.01 4.74628C1267.14 0.754964 1264.51 7.73995 1264.51 7.73995C1253.27 20.17 1243.06 36.18 1241.74 40.6703C1240.43 45.1606 1242.77 48.6765 1250.06 46.1587C1261.87 40.1685 1278.52 16.2215 1282.02 7.73995C1285.52 -0.741644 1278.52 4.74628 1278.52 4.74628C1273.59 8.1842 1271.26 11.8249 1267.57 20.2136" stroke="black"/>
<g id="letter_B">
<path id="B" d="M101.5 6L66 45.5C61.516 50.3737 59.8197 50.5399 58.5 45.5L76.5 13.5C91.5164 7.14615 109.5 7 114.5 10C119.5 13 117.5 15 115.5 17.5C113.5 20 99.4264 24.9352 80 27C91.1572 25.5436 95.8898 26.6681 102.5 31C105.714 34.023 104.921 36.2115 101.5 40.5C96.8199 45.7485 90.5 48.5 82.5 50C74.5 51.5 71.3351 49.1688 73 39.5" stroke="black"/>
<path id="Vector 47" d="M77.5 14.5L75.5 13L57 45.5H60L77.5 14.5Z" fill="#D9D9D9"/>
</g>
<path id="N" d="M4.00598 27.4414C12.311 17.5753 17.4826 13.2462 27.506 7.4414C33.4874 4.36752 33.0821 6.60533 32.506 10.4414C32.0117 14.2874 23.0508 24.486 3.00598 46.4414C3.00598 46.4414 0.872864 49.3005 1.00598 45.4414C1.1391 41.5823 44.7552 11.0202 50.506 7.4414C56.2568 3.8626 57.4177 8.30171 55.506 10.4414C54.3525 12.0723 45.7772 20.9941 24.506 42.9414C21.0178 47.1564 23.1076 47.2166 27.506 46.9414" stroke="black"/>
<path id="M" d="M405 28.0128C416.486 15.1537 422.308 9.00984 427.5 7.01284C432.965 5.12289 433.083 6.37391 431.5 10.0128C430.047 13.3537 422.165 23.2344 404 45.5128C403.084 46.0545 402.59 46.2477 402 45.0128C426.882 21.5572 437.066 12.4851 443.5 9.01284C447.441 6.95433 447.813 7.99248 447.5 11.0128C447.078 13.7889 439.185 24.1137 422.5 45.5128C422.5 45.5128 421.883 47.4175 421 45.0128C420.117 42.608 463.54 4.16069 465.5 4.01284C467.46 3.86499 469 5.01249 468.5 6.51284C468 8.01318 439.5 39.5132 438.5 42.0128C437.5 44.5124 438.13 45.1553 441 45.5128" stroke="black"/>
</g>
</svg>
