<svg width="575" height="66" viewBox="0 0 575 66" fill="none" xmlns="http://www.w3.org/2000/svg">
<g id="hello">
<path id="M" d="M174 29.0128C185.486 16.1537 191.308 10.0098 196.5 8.01284C201.965 6.12289 202.083 7.37391 200.5 11.0128C199.047 14.3537 191.165 24.2344 173 46.5128C172.084 47.0545 171.59 47.2477 171 46.0128C195.882 22.5572 206.066 13.4851 212.5 10.0128C216.441 7.95433 216.813 8.99248 216.5 12.0128C216.078 14.7889 208.185 25.1137 191.5 46.5128C191.5 46.5128 190.883 48.4175 190 46.0128C189.117 43.608 232.54 5.16069 234.5 5.01284C236.46 4.86499 238 6.01249 237.5 7.51284C237 9.01318 208.5 40.5132 207.5 43.0128C206.5 45.5124 207.13 46.1553 210 46.5128" stroke="black"/>
<path id="e" d="M38 46.2058C40.2982 45.6533 41.9997 44.911 44.6662 44.0846C48.5503 42.8808 53.1088 41.5149 56.221 39.0758C59.3332 36.6367 59.5318 35.1184 61.9984 31.8876C62.6217 30.8518 62.742 30.2719 61.9984 29.2361C61.6804 29.1448 61.3877 29.078 61.1096 29.0393C59.9347 28.8755 59.02 29.2106 57.5543 30.2967C56.0117 31.6133 54.8323 32.7655 53.822 33.9949C52.4138 35.7084 51.3341 37.5719 50.0571 40.2393C49.3662 41.9463 49.1104 42.4938 49.1104 44.0846C49.1104 45.6754 49.5548 47.0303 50.4436 47.0303C51.6772 47.0303 51.7769 47.0303 53.5545 47.0303C53.999 47.0303 54.8878 47.0303 55.7766 47.0303C55.7766 47.0303 57.5543 47.0303 63.7761 46.2058" stroke="black"/>
<g id="letter_H">
<path id="H" d="M16.5 8C15.6133 13.1877 13.8055 16.0227 9 21C18.1739 11.6544 23.8302 9.59326 34.5 9.5H43.5L21.5 38.5C16.4652 44.419 15.6765 46 9 49C2.32355 52 1 43 1 43C1.43769 40.7212 2.63405 37.4295 7.82355 34C12.1471 30 18.8235 27 25.8235 30C31.8235 34 37.8235 46 37.8235 47C37.8235 48 37.3235 49 35.8235 49C34.3235 49 34.5 46 34.5 46C37.2992 39.1052 47.3908 26.6176 57.8235 12" stroke="black"/>
<path id="Vector 41" d="M25.5 27.0001C17.8553 25.3213 13.9813 26.9377 7.5 32.5001L10 35.0001L24 30.5001L25.5 27.0001Z" fill="#D9D9D9"/>
</g>
<path id="l" d="M62 47.0286C80.843 38.1874 90.409 31.2582 105.5 15.0286C107.027 11.2826 107.538 9.51225 102 12.5286C85.8094 29.0081 80.4069 35.8031 77.5 43.5286C76.8662 46.2349 77.4066 46.9042 79.5 47.0286" stroke="black"/>
<path id="l_2" d="M80 47.0286C98.843 38.1874 108.409 31.2582 123.5 15.0286C125.027 11.2826 125.538 9.51225 120 12.5286C103.809 29.0081 98.4069 35.8031 95.5 43.5286C94.8662 46.2349 95.4066 46.9042 97.5 47.0286" stroke="black"/>
<path id="o" d="M97 47.0625C101.052 45.4844 103.246 44.1985 107 41.0625C111.985 36.8612 114.733 34.8983 119.5 32.5625C113.388 35.7777 111.668 38.3477 110 43.5625C109.616 46.5939 110.633 46.9756 113 47.0625C119.738 43.1905 122.59 40.2243 125.5 33.0625C124.991 30.9031 124.16 30.5047 121.5 31.5625C118.909 33.9012 118.459 35.2148 118.5 37.5625C118.79 39.2002 120.454 39.4929 124.5 39.5625" stroke="black"/>
<path id="y" d="M210 46L215 44L220 40.5L233.5 29.5C229.784 34.8156 227.366 37.2441 224.5 41.5C223.621 43.6052 223.829 44.1971 224.5 45C225.039 45.4492 225.684 45.5014 227 45.5C232.097 43.4045 237.37 36.8496 245.5 28L231 46.5L219.5 60.5C217.266 63.2576 216.078 64.5706 214.5 65C214.5 65 212.5 66 212.5 64.5C212.5 63 214.099 57.4409 220 52.5C228.724 46.7385 232.748 45.848 239.5 45.4037" stroke="black"/>
<path id="n" d="M250 46.5C253.929 45.8225 261.165 39.6993 273 30L263 45.5C261.793 45.9294 261.307 45.979 261.5 45C274.85 34.2336 281.5 30.5 282.5 31C283.525 30.7524 284.384 32.2161 283.5 33.5L273.5 43.5C271.868 45.3756 272.951 45.8875 276 46.5" stroke="black"/>
<path id="a" d="M276 46.9729C282.261 44.9583 286.916 41.0256 295.5 33.9729C300.872 30.6424 302.824 30.3354 304.5 32.4729C302.964 30.0257 301.732 30.9334 298 32.9727C292.922 36.3055 290.287 37.9693 288 42.4729C287.171 47.2423 289.021 46.7591 293 44.9729C301.342 38.6237 304.497 35.9431 307 32.9729C307.106 31.951 306.799 31.9177 305.5 32.9729C300.942 38.4493 299.221 41.1179 297 45.4729C296.439 47.1117 297.145 47.3325 299.5 46.9729" stroke="black"/>
<path id="m" d="M299 46.5C305.918 44.3028 311.768 39.0155 322 30C322.921 30.2158 322.5 31.5 322.5 31.5L312.5 45.5C311.196 46.5122 310.652 46.7648 311 45C316.818 39.2561 320.839 36.1849 329.5 31C333.343 30.8057 329.72 35.7157 321.5 46C320.324 46.7089 319.822 46.824 319.5 46C330.611 35.5414 335.712 31.1853 339.5 30.5C341.22 30.0597 341.435 30.6183 341 32.5L331 43.5C329.73 45.5795 330.486 46.1536 333.5 46.5" stroke="black"/>
<path id="e_2" d="M333 46.2058C335.298 45.6533 337 44.911 339.666 44.0846C343.55 42.8808 348.109 41.5149 351.221 39.0758C354.333 36.6367 354.532 35.1184 356.998 31.8876C357.622 30.8518 357.742 30.2719 356.998 29.2361C356.68 29.1448 356.388 29.078 356.11 29.0393C354.935 28.8755 354.02 29.2106 352.554 30.2967C351.012 31.6133 349.832 32.7655 348.822 33.9949C347.414 35.7084 346.334 37.5719 345.057 40.2393C344.366 41.9463 344.11 42.4938 344.11 44.0846C344.11 45.6754 344.555 47.0303 345.444 47.0303C346.677 47.0303 346.777 47.0303 348.555 47.0303C348.999 47.0303 349.888 47.0303 350.777 47.0303C350.777 47.0303 352.554 47.0303 358.776 46.2058" stroke="black"/>
<g id="letter_i">
<path id="i" d="M374 47.1168C379.828 45.5231 387.166 38.6394 398 29.5001C392.629 36.2181 390 41.1168 388 44.1168C386 47.1168 387.658 46.9813 390.5 47.1168C397.282 38.1546 403.5 22.6168 403.5 22.6168C403.5 22.6168 404.5 22.0001 404.5 21.5C404.5 20.9998 404 21 404 21C404 21 403 21 403 22" stroke="black"/>
<path id="Vector 19" d="M403 22.4999L390 46.4999L392 46.9999C397.707 38.5741 400.839 33.7896 404.5 23.4999L403 22.4999Z" fill="#D9D9D9"/>
</g>
<path id="s" d="M390 47.5L403 39L414 30C412.559 37.7162 410.935 40.9903 407 45.5C404.157 48.2887 402.62 48.2123 400 44.5C400.189 41.1857 400.698 40.5274 402.5 42C403.681 43.5913 403.992 44.4739 404 46C404.286 47.0502 405.081 47.4097 408 47.5" stroke="black"/>
<path id="S" d="M434.9 29.756L457.713 5.23416C460.033 2.8626 458.825 0.130706 457.156 1.26476C455.487 2.39881 455.951 1.83175 456.6 16.5753C457.249 31.3188 457.713 33.5869 454.374 38.1234C451.036 42.6599 447.698 45.4952 439.352 44.9281C431.006 44.361 422.66 26.7823 436.014 20.5447C439.617 18.0456 449.367 23.38 442.69 30.7517" stroke="black"/>
<path id="e_3" d="M446 44.3598C448.318 43.9308 450.034 43.3544 452.724 42.7127C456.642 41.7781 461.24 40.7174 464.379 38.8235C467.519 36.9296 467.719 35.7508 470.207 33.2421C470.836 32.4379 470.957 31.9876 470.207 31.1833C469.886 31.1124 469.591 31.0606 469.31 31.0305C468.125 30.9033 467.203 31.1635 465.724 32.0069C464.168 33.0291 462.979 33.9238 461.959 34.8784C460.539 36.2089 459.45 37.6558 458.162 39.727C457.465 41.0524 457.207 41.4775 457.207 42.7127C457.207 43.948 457.655 45 458.552 45C459.796 45 459.897 45 461.69 45C462.138 45 463.034 45 463.931 45C463.931 45 465.724 45 472 44.3598" stroke="black"/>
<path id="r" d="M470 45.0801C473.624 43.9067 475.59 42.8026 479 40.0801C482.846 37.1674 484.844 35.4345 488 32.0801L488.5 31.5801M488.5 31.5801C487.822 31.4197 488 30.0801 488 30.0801C488.829 28.965 489.524 28.4343 491 27.5801C492.365 26.545 492.303 27.0084 492 28.0801C491.394 28.8655 490.477 29.7272 489.119 31C488.922 31.1844 488.716 31.3775 488.5 31.5801ZM488.5 31.5801C490.077 31.1356 490.953 30.7048 492.5 29.5801C493.136 29.2849 493.936 28.8837 494.663 28.7711C495.954 28.5711 497.017 28.8763 496.523 30.0801C496.317 30.5815 495.841 31.2387 495 32.0801C491 36.0802 490.015 38.2749 486.5 42.1801C485.24 43.5802 485.139 44.3965 486.5 45.0801C487.246 45.3501 487.684 45.4374 488.5 45.4801C491.219 45.3897 491.621 45.4488 494 44.5" stroke="black"/>
<path id="g" d="M491.876 45.4927C499.067 41.934 502.953 39.0963 509.876 33.9927C518.241 27.8842 520.449 27.6732 520.376 32.4927C520.661 27.7978 518.973 27.8739 512.876 32.4927C504.858 38.0754 503.495 40.2169 504.376 42.9927C504.745 45.3199 505.995 44.9311 508.376 43.9927L523.376 30.9927C501.957 56.0736 494.291 64.307 491.876 63.9927C488.359 64.6358 487.361 64.1747 488.376 60.9927C495.326 50.6268 501.634 47.875 514.876 45.4927" stroke="black"/>
<path id="e_4" d="M515 45.2058C517.424 44.6533 519.218 43.911 522.03 43.0846C526.126 41.8808 530.934 40.5149 534.216 38.0758C537.498 35.6367 537.708 34.1184 540.309 30.8876C540.966 29.8518 541.093 29.2719 540.309 28.2361C539.974 28.1448 539.665 28.078 539.372 28.0393C538.133 27.8755 537.168 28.2106 535.622 29.2967C533.995 30.6133 532.752 31.7655 531.686 32.9949C530.201 34.7084 529.062 36.5719 527.716 39.2393C526.987 40.9463 526.717 41.4938 526.717 43.0846C526.717 44.6754 527.186 46.0303 528.123 46.0303C529.424 46.0303 529.529 46.0303 531.404 46.0303C531.873 46.0303 532.81 46.0303 533.747 46.0303C533.747 46.0303 535.622 46.0303 542.184 45.2058" stroke="black"/>
<path id="y_2" d="M539 46L544 44L549 40.5L562.5 29.5C558.784 34.8156 556.366 37.2441 553.5 41.5C552.621 43.6052 552.829 44.1971 553.5 45C554.039 45.4492 554.684 45.5014 556 45.5C561.097 43.4045 566.37 36.8496 574.5 28L560 46.5L548.5 60.5C546.266 63.2576 545.078 64.5706 543.5 65C543.5 65 541.5 66 541.5 64.5C541.5 63 543.099 57.4409 549 52.5C557.724 46.7385 561.748 45.848 568.5 45.4037" stroke="black"/>
</g>
</svg>
