<svg width="42" height="70" viewBox="0 0 42 70" fill="none" xmlns="http://www.w3.org/2000/svg">
<g id="j_frame">
<path id="j" d="M1.26041 47.5C8.70886 47.2227 14.5001 47 20.2604 43.5C20.2604 43.5 26.4024 38.6529 32.2604 32.5C14.5785 55.5639 9.53712 60.9284 3.76041 65.5C1.32755 66.833 1.53482e-05 66 1.26041 62.5C5.83109 56.4224 11.0826 53.1481 24.2604 47.5C32.2604 41.5 36.4085 36.3601 40.2604 24.5C40.7605 22.9601 40.7605 22 39.7605 22C39.2605 22 38.5 22.5 39.2605 23.5C40.0511 23.972 40.2605 22.5 40.2605 22.5" stroke="black"/>
<path id="Vector 50" d="M23.5 47H26.5C34.9387 41.7553 38.496 36.8717 42 23.5L39 25C34.2513 34.8629 30.3008 40.2111 23.5 47Z" fill="#D9D9D9"/>
</g>
</svg>
