<svg width="68" height="70" viewBox="0 0 68 70" fill="none" xmlns="http://www.w3.org/2000/svg">
<g id="M frame">
<path id="M" d="M4 29.0128C15.4864 16.1537 21.3082 10.0098 26.5 8.01284C31.965 6.12289 32.0834 7.37391 30.5 11.0128C29.0466 14.3537 21.1655 24.2344 3 46.5128C2.08352 47.0545 1.59005 47.2477 1 46.0128C25.8817 22.5572 36.0661 13.4851 42.5 10.0128C46.4411 7.95433 46.8134 8.99248 46.5 12.0128C46.078 14.7889 38.1849 25.1137 21.5 46.5128C21.5 46.5128 20.8834 48.4175 20 46.0128C19.1166 43.608 62.5405 5.16069 64.5 5.01284C66.4595 4.86499 68 6.01249 67.5 7.51284C67 9.01318 38.5 40.5132 37.5 43.0128C36.5 45.5124 37.1302 46.1553 40 46.5128" stroke="black"/>
</g>

</svg>
