<svg width="44" height="70" viewBox="0 0 44 70" fill="none" xmlns="http://www.w3.org/2000/svg">
<g id="m_frame">
<path id="m" d="M1 46.5C7.91823 44.3028 13.7681 39.0155 24 30C24.9208 30.2158 24.5 31.5 24.5 31.5L14.5 45.5C13.1955 46.5122 12.6518 46.7648 13 45C18.8178 39.2561 22.8386 36.1849 31.5 31C35.3434 30.8057 31.7196 35.7157 23.5 46C22.3245 46.7089 21.8222 46.824 21.5 46C32.6113 35.5414 37.7118 31.1853 41.5 30.5C43.2196 30.0597 43.4345 30.6183 43 32.5L33 43.5C31.7302 45.5795 32.4861 46.1536 35.5 46.5" stroke="black"/>
</g>
</svg>
