<svg width="34" height="70" viewBox="0 0 34 70" fill="none" xmlns="http://www.w3.org/2000/svg">
<g id="p_frame " >
<path id="p" d="M1.5 47.5C6.27782 45.7151 8.78799 44.1515 13 40.5C18.6906 35.345 21.9581 32.7611 28 29C17.44 42.7137 11.2636 49.8386 0 62C5.37005 54.2582 4.90956 52.1321 25 35C29.7505 31.7004 31.5633 31.069 33 32.5C33.8156 37.1719 31.7215 40.0436 24.5 45.5C22.0095 47.1424 20.6748 47.541 18.5 46.5C17.6835 45.6237 17.462 44.9458 18 43C19.3785 41.048 19.6694 41.5282 20 43C21.1628 48.0105 23.3049 48.075 27.5 47.5" stroke="black"/>
</g>

</svg>
