<svg width="32" height="70" viewBox="0 0 32 70" fill="none" xmlns="http://www.w3.org/2000/svg">
<g id="q_frame" clip-path="url(#clip0_0_1)">
<path id="q" d="M0 46.782C5.10286 44.7449 8.05547 43.0179 13.5 38.782C20.024 33.5055 26.5 28.782 28.5 30.282C29.9718 31.4429 30.2403 32.1005 29.9999 33.2821C30.3054 31.9545 29.2794 31.0799 27.9999 30.2821C22.2519 31.9613 20.2626 33.7063 15.5 38.782C13.1772 41.0488 12.6179 42.2269 12 44.282C11.9175 46.374 12.8922 46.4799 15 46.282C21.7656 42.2479 25.0648 39.2824 29.5 34.282C30.8305 32.782 30.1095 34.282 30.5 34.282C20.9177 44.7035 9 61.782 8.5 62.782C8 63.782 8.5 64.782 8.5 64.782C9.25825 65.4069 9.84978 65.2802 11 64.782C18.0548 59.0287 20.9076 55.4503 22 47.782V46.782H31.4999" stroke="black"/>
</g>


</svg>
