<svg width="28" height="70" viewBox="0 0 28 70" fill="none" xmlns="http://www.w3.org/2000/svg">
<g id="r_frame" >
<path id="r" d="M0 47.0801C3.62414 45.9067 5.59037 44.8026 9 42.0801C12.8457 39.1674 14.8441 37.4345 18 34.0801L18.5 33.5801M18.5 33.5801C17.8224 33.4197 18 32.0801 18 32.0801C18.8292 30.965 19.5244 30.4343 21 29.5801C22.3646 28.545 22.3032 29.0084 22 30.0801C21.3935 30.8655 20.4767 31.7272 19.1185 33C18.9218 33.1844 18.7157 33.3775 18.5 33.5801ZM18.5 33.5801C20.0772 33.1356 20.9533 32.7048 22.5 31.5801C23.1356 31.2849 23.9356 30.8837 24.6629 30.7711C25.9545 30.5711 27.0169 30.8763 26.5229 32.0801C26.3171 32.5815 25.8415 33.2387 25 34.0801C21 38.0802 20.0147 40.2749 16.5 44.1801C15.2399 45.5802 15.1385 46.3965 16.5 47.0801C17.2462 47.3501 17.6842 47.4374 18.5 47.4801C21.2186 47.3897 21.6211 47.4488 24 46.5" stroke="black"/>
</g>
</svg>
