<svg width="28" height="70" viewBox="0 0 28 70" fill="none" xmlns="http://www.w3.org/2000/svg">
<g id="Russ_a_Frame">
<path id="Vector 51" d="M17.5 35.9999C17.6488 33.4329 17.5 32.4999 16.5 31.4999C15.5 30.4999 12.808 30.6871 10 32.4999C4.81595 36.376 2.99999 39.5 3 42.4999C3.00001 45.4999 5.49999 47.4999 9 45.9999C12.5 44.5 13.609 43.5592 15.5 40.4999L21 31.4999C21 31.4999 15.641 39.8525 15.5705 40.1762C15.5 40.4999 15.5346 43.4128 15.5705 44.1762C15.6064 44.9396 16.1738 46.1044 16.5 46.4999C16.8262 46.8954 17.4782 47.2674 19 46.4999L24 42.4999L26 40.4999" stroke="black" stroke-linecap="round"/>
</g>
</svg>
