<svg width="27" height="70" viewBox="0 0 27 70" fill="none" xmlns="http://www.w3.org/2000/svg">
<g id="Russ_n_Frame">
<path id="Vector 63" d="M1.5 35.1245L9.5 28.9421C10.1685 27.8594 10.1023 27.5956 9.5 27.5154L1.5 45.587C1.16868 45.7231 1.04241 45.6507 1 45.1115L3.5 39.4046C3.73 38.7337 3.9596 38.4226 4.5 37.9779C9.59328 37.2918 12.3432 36.6849 17 35.1245C18.3309 34.3435 21.3171 31.17 25 27.5154C25.2901 27.1054 25.4079 26.91 25 27.0398C22.4819 28.2276 21.7313 29.6774 20 31.7955C17.7198 36.9951 16.4333 39.9193 15 44.1603C14.4557 48.4345 18.5027 45.7594 23 44.1603" stroke="black" stroke-linecap="round"/>
</g>
</svg>
