<svg width="70" height="70" viewBox="0 0 70 70" fill="none" xmlns="http://www.w3.org/2000/svg">
<g id="russA_Frame">
<path id="Vector 52" d="M9.00207 38.8693C8.8931 49.4862 13.0895 49.0131 23.0016 44.5021C31.2858 39.6135 45.5198 24.7837 68 2C68 2 40.501 53.155 43.5009 47.5745C46.5007 41.9939 42.5009 35.7968 42.5009 35.7968C39.2394 29.4749 36.501 29.1399 33.0011 28.6278C29.5012 28.1157 25.5016 29.1399 24.0015 30.6761C22.5015 32.2123 21.5015 34.7727 24.0015 36.821C26.5016 38.8693 33.2714 39.3105 37.0011 39.3813C40.7308 39.4522 42.7738 38.5193 46.5008 38.3572C49.0368 38.2468 53.0005 38.3572 53.0005 38.3572" stroke="black" stroke-linecap="round"/>
</g>
</svg>
