<svg width="38" height="70" viewBox="0 0 38 70" fill="none" xmlns="http://www.w3.org/2000/svg">
<g id="Russ_t_Frame">
<path id="Vector 62" d="M2 36C6.3924 33.1704 8.51554 31.2368 11.5 27L2 46C5.36262 38.9922 7 35 9.5 33C12 31 19.8051 25.046 22 28.5C22.6274 29.8231 22.577 30.5925 22 32L14 46C18.8786 37.3591 21.8012 32.0988 23.5 30.5C27.7002 27.299 29.825 26.6244 33 28.5C34.303 29.8147 32.5 31.5 30 36.5C27.5 41.5 27.5415 43.6898 29 46C30.2467 46.7597 32.4155 45.6745 37 43" stroke="black" stroke-linecap="round"/>
</g>
</svg>
