<svg width="70" height="70" viewBox="0 0 70 70" fill="none" xmlns="http://www.w3.org/2000/svg">
<g id="russA_Frame">
<path id="Vector 52" d="M9.00011 40C8.89115 50.3667 13.0877 49.9047 23.0001 45.5C31.2846 40.7267 45.5191 26.2465 68.0001 4C68.0001 4 40.5001 53.949 43.5001 48.5C46.5001 43.051 42.5001 37 42.5001 37C39.2385 30.8271 36.5 30.5 33 30C29.5 29.5 25.5002 30.5 24.0001 32C22.5 33.5 21.5 36 24.0001 38C26.5002 40 33.2703 40.4308 37.0001 40.5C40.7299 40.5692 42.773 39.6583 46.5001 39.5C49.0362 39.3923 53.0001 39.5 53.0001 39.5" stroke="black" stroke-linecap="round"/>
</g>
</svg>
