<svg width="31" height="70" viewBox="0 0 31 70" fill="none" xmlns="http://www.w3.org/2000/svg">
<g id="Russ_k_Frame">
<path id="Vector 64" d="M1 43.62C9.61496 37.7409 12.6709 34.4588 16 28.62C13.8281 35.0924 9.5 44.12 9.5 44.12C7.97257 46.0143 7.14755 46.5864 6.5 46.62L17.5 32.62C23.557 27.0271 26.0612 26.9217 29.5 30.12L15.5 35.62C18.5094 34.5171 24.5895 35.183 23 37.62C20.4743 40.8537 19.5939 42.3908 20 44.12C20.8393 48.1053 23.0179 47.402 27.5 45.12" stroke="black" stroke-linecap="round"/>
<path id="Polygon 6" d="M27.4999 29.5L29.9999 31.5L22.5 35C20.1189 34.304 17.9998 32.5 18.4998 32.5C18.9998 32.5 27.4999 29.5 27.4999 29.5Z" fill="#D9D9D9"/>
</g>
</svg>
