<svg width="55" height="70" viewBox="0 0 55 70" fill="none" xmlns="http://www.w3.org/2000/svg">
<g id="RussB_Frame">
<g id="Frame 23">
<path id="Vector 53" d="M33.8921 7.46641C33.8921 7.46641 18.4996 39.1622 14.7842 42.6289C11.0688 46.0956 9.09876 46.2427 8.41493 44.6099C6.89024 38.7453 9.49465 35.2347 17.4381 28.762C26.5143 22.7717 33.3616 22.3238 36.0152 23.8095C38.6688 25.2953 41.7418 38.6533 30.1767 44.6099C23.3299 46.6613 19.9345 46.5321 14.7842 43.6194L16.3765 17.3713C13.2552 14.376 12.6611 13.4094 13.7227 8.4569C14.7842 3.50444 28.904 2.91241 53 3.00919" stroke="black" stroke-linecap="round"/>
</g>
<path id="Polygon 4" d="M18.5 17L18 27L13.5 30V18.5L18.5 17Z" fill="#D9D9D9"/>
<path id="Polygon 5" d="M18 29.5L16.5 39L13.5 42.5V33.5L18 29.5Z" fill="#D9D9D9"/>
</g>
</svg>
