<svg width="34" height="70" viewBox="0 0 34 70" fill="none" xmlns="http://www.w3.org/2000/svg">
<g id="t_frame">
<g id="letter_t">
<path id="t" d="M0 46.5C0 46.5 1.3395 46.3826 4 44.5633C8.78376 41.3817 11.0342 38.7688 15.5 34.5C18.5266 31.3758 22.6383 29.4379 25 27L33 19.5634C33.8568 18.6781 33.0399 17.7463 32.0443 18.0633C29.9277 18.7276 26.9754 21.9051 22.5 26.5C17.2884 32.3716 18.5 31.5634 14 36.5634C10.7434 40.3715 8.3795 42.6908 9.5 45.0634C10.0151 47.2077 11.4971 47.6028 14.5 48.0633C16.769 47.9402 19.1015 47.3199 24.5 45.5633L14.5 27H34" stroke="black"/>
<path  d="M19.5 32.5C18.2813 33.0719 16.6917 34.4726 16 35.5L23 45.5L26 44.5L19.5 32.5Z" fill="#D9D9D9"/>
<path  d="M16.0001 28L13.5 28L15 33.5C16.1553 32.4728 17.2956 31.5807 18.5001 29.5L16.0001 28Z" fill="#D9D9D9"/>
</g>
</g>

</svg>
