<svg width="43" height="70" viewBox="0 0 43 70" fill="none" xmlns="http://www.w3.org/2000/svg">
<g id="w frame" clip-path="url(#clip0_532_50)">
<path id="w" d="M0 47.2667C3.66045 46.3054 5.53836 45.3551 8.5 42.7667C14.9211 37.4491 18.4034 34.8977 24.5 30.7667C19.5829 36.2098 17.299 38.765 15.5 43C14.6743 44.5424 14.6447 45.2844 15 45.7667C15.5434 46.6455 16.1826 46.7611 17.5 46.7667C21.3444 44.7344 22.7279 42.6336 25.5 39.2667C27.3625 37.0563 28.5576 35.8562 31 33.7667C31.4194 33.3476 31.6415 33.123 32 32.7667C31.7153 32.3814 31.5371 32.2145 31 32.5L25.5 39C24.2715 41.8124 23.5814 42.5607 23.5 44L24 45.7667C24 47.2667 27 47.2667 27 47.2667C28.752 46.9884 32.4 44.236 35.2146 40.1731C35.8662 39.4014 36.4184 38.5581 37 37.7667C39.9851 33.705 40.9583 31.8286 41 31.2667C41.2341 30.0925 41.1729 29.6755 40 30.2667C38.3413 31.0321 37.5908 31.5909 36.5 32.7667C34.7921 34.7042 34.3302 35.8015 34 37.7667C34.2917 40.0887 35.7277 40.2222 38.5 40.2667C40.4482 39.7959 41.3567 39.3827 42.5 38.2667" stroke="black"/>
</g>

</svg>
