<svg width="36" height="70" viewBox="0 0 36 70" fill="none" xmlns="http://www.w3.org/2000/svg">
<g id="y_frame" >
<path id="y" d="M0 47L5 45L10 41.5L23.5 30.5C19.7841 35.8156 17.3659 38.2441 14.5 42.5C13.6211 44.6052 13.8291 45.1971 14.5 46C15.0387 46.4492 15.6842 46.5014 17 46.5C22.0969 44.4045 27.3703 37.8496 35.5 29L21 47.5L9.5 61.5C7.26555 64.2576 6.07846 65.5706 4.5 66C4.5 66 2.5 67 2.5 65.5C2.5 64 4.09861 58.4409 10 53.5C18.724 47.7385 22.7476 46.848 29.5 46.4037" stroke="black"/>
</g>

</svg>
