<svg width="62" height="70" viewBox="0 0 62 70" fill="none" xmlns="http://www.w3.org/2000/svg">
<g id="Z frame">
<path id="Z" d="M40.529 13.5201C35.3586 16.3338 32.5069 17.8085 28.529 18.0201C24.2479 18.0714 23.191 17.7073 26.529 15.5201C36.0197 8.17041 42.4287 5.80484 56.029 5.02014C60.5459 4.75507 61.0773 7.09866 61.029 12.5201C61.1043 19.2287 53.5817 24.8539 33.529 36.5201C29.536 38.6647 21.529 40.0201 21.529 40.0201C21.529 40.0201 18.529 40.0201 21.529 38.0201C24.529 36.0201 32.529 38.0201 32.529 38.0201C36.1517 38.9274 32.038 43.7331 21.529 54.5201C16.3131 58.6727 12.4542 60.5702 4.02899 63.0201C1.68726 63.6076 0.823946 63.6506 1.02922 60.02C1.25538 56.02 19.529 45.02 19.529 45.02C26.0828 41.5011 29.0092 41.9906 34.0292 43.52" stroke="black"/>
</g>
</svg>
